<?xml version="1.0" standalone="no"?>
<!DOCTYPE svg PUBLIC "-//W3C//DTD SVG 20010904//EN"
 "http://www.w3.org/TR/2001/REC-SVG-20010904/DTD/svg10.dtd">
<svg version="1.0" xmlns="http://www.w3.org/2000/svg"
 width="1024.000000pt" height="1024.000000pt" viewBox="0 0 1024.000000 1024.000000"
 preserveAspectRatio="xMidYMid meet">

<g transform="translate(0.000000,1024.000000) scale(0.100000,-0.100000)"
fill="#ffffff" stroke="none">
<path d="M5007 9169 c-8 -11 -39 -46 -68 -78 -113 -120 -113 -121 -101 -133
16 -16 377 -24 387 -9 4 7 -13 36 -39 68 -25 30 -63 82 -84 114 -40 63 -70 75
-95 38z m53 -146 c0 -15 -36 -18 -45 -3 -3 5 -1 19 6 32 11 21 12 21 25 3 8
-10 14 -25 14 -32z"/>
<path d="M3763 9094 c-63 -31 -111 -139 -94 -214 12 -56 39 -99 74 -120 35
-22 97 -26 129 -9 17 9 28 2 86 -58 170 -174 478 -499 572 -603 57 -63 118
-130 134 -148 l31 -33 -32 -24 c-41 -32 -132 -155 -168 -225 -16 -30 -38 -89
-50 -130 l-21 -75 -1319 -1 -1320 0 -56 -22 c-65 -26 -159 -114 -193 -182 -44
-86 -61 -160 -59 -245 10 -313 13 -3440 4 -3955 -10 -567 -10 -620 5 -665 30
-88 79 -160 143 -208 118 -90 229 -121 415 -115 58 2 106 -1 106 -5 0 -13 -41
-89 -71 -134 -16 -23 -68 -113 -115 -200 -84 -155 -181 -309 -206 -331 -8 -6
-125 -15 -293 -21 -154 -6 -300 -15 -325 -21 -25 -5 -71 -9 -103 -10 -50 0
-59 -3 -68 -23 -13 -30 4 -77 29 -77 9 0 29 8 42 18 24 16 230 17 3980 18
3759 1 3957 0 3990 -16 31 -16 38 -16 63 -4 33 18 46 59 24 81 -19 19 -191 32
-447 33 l-176 0 -39 52 c-63 84 -100 141 -305 478 -18 30 -51 81 -73 113 l-39
59 138 -7 c96 -5 157 -4 199 5 135 27 270 131 330 254 46 93 50 123 48 296 -1
80 -4 1122 -6 2316 l-3 2171 -37 77 c-63 132 -156 212 -306 261 -52 17 -125
17 -1383 10 -1200 -6 -1328 -5 -1328 9 0 39 -51 171 -95 244 -26 44 -74 109
-107 144 -32 34 -57 66 -56 70 3 7 474 499 675 705 l119 121 65 -5 c101 -8
154 29 180 128 14 54 6 105 -24 150 -72 106 -203 106 -285 0 -41 -55 -48 -83
-33 -143 l13 -48 -284 -293 c-157 -160 -321 -332 -365 -382 -45 -49 -103 -112
-131 -139 l-50 -48 -44 16 c-23 9 -70 20 -103 24 l-60 7 -3 201 -2 200 -43 -5
-42 -6 -3 -197 -2 -198 -35 0 c-20 0 -60 -9 -89 -19 l-54 -19 -114 117 c-62
64 -219 229 -348 366 -129 138 -262 278 -294 313 l-60 63 11 51 c19 94 -27
180 -113 211 -60 21 -89 21 -131 1z m2575 -130 c12 -14 22 -33 22 -43 0 -28
-49 -71 -81 -71 -57 0 -79 81 -34 126 30 30 58 26 93 -12z m-2454 5 c33 -26
34 -62 1 -94 -24 -25 -68 -33 -92 -17 -11 7 -33 54 -33 71 0 5 9 20 21 35 25
32 66 34 103 5z m1309 -1084 c146 -58 229 -135 294 -275 19 -41 39 -83 44 -92
13 -25 11 -58 -3 -58 -29 0 -58 41 -58 80 0 81 -166 258 -232 248 -19 -3 -17
-8 24 -56 49 -57 148 -228 148 -255 0 -16 -33 -17 -425 -17 -234 0 -428 1
-432 3 -26 9 41 170 109 261 28 37 72 83 97 102 119 88 299 112 434 59z m257
-320 c0 -5 -5 -3 -10 5 -5 8 -10 20 -10 25 0 6 5 3 10 -5 5 -8 10 -19 10 -25z
m-870 -219 c1323 0 2457 1 2520 2 63 1 369 0 680 -2 l565 -3 48 -23 c74 -35
152 -112 188 -185 l31 -64 -3 -1748 c-4 -1845 -4 -1851 6 -2423 5 -271 4 -379
-5 -420 -31 -137 -86 -205 -219 -269 l-76 -36 -3160 -1 c-1738 0 -3193 3
-3233 7 -141 14 -268 105 -309 222 -16 48 -18 87 -14 482 2 237 5 1159 6 2050
2 891 6 1676 10 1743 7 116 9 126 35 155 15 18 37 50 48 73 32 63 133 195 185
240 53 47 154 98 212 109 51 9 75 22 75 40 0 53 -208 16 -316 -57 -46 -30
-195 -231 -225 -302 -28 -68 -39 -58 -39 37 0 118 60 253 140 317 76 60 129
71 305 62 77 -4 1222 -6 2545 -6z m2386 -5283 c97 -8 74 -18 -42 -18 -61 0
-88 4 -91 13 -5 14 18 15 133 5z m400 -22 c-3 -4 4 -17 16 -27 11 -11 65 -78
119 -151 90 -119 145 -180 156 -169 4 4 -57 108 -107 181 -31 46 -90 151 -90
160 0 23 78 -67 162 -185 48 -69 127 -155 134 -147 8 8 -35 96 -83 169 -26 40
-53 89 -60 108 -6 19 -13 31 -13 25 -1 -5 -6 1 -11 14 -12 31 -1 42 17 16 16
-23 20 -29 107 -141 34 -45 78 -103 97 -129 19 -27 46 -55 60 -64 28 -18 32
-26 -43 94 -64 103 -120 219 -115 242 2 12 17 -5 46 -52 24 -39 88 -133 144
-210 55 -77 122 -174 150 -215 64 -97 86 -120 115 -120 36 0 28 52 -14 98 -7
7 -13 22 -13 31 0 29 -26 84 -55 114 -15 16 -24 31 -21 34 9 9 -35 43 -85 64
-42 18 -51 29 -107 128 -34 60 -62 112 -62 116 0 15 82 -80 120 -140 26 -39
58 -72 92 -95 55 -37 79 -69 221 -298 37 -61 67 -113 67 -117 0 -3 -8 -4 -17
-1 -10 3 -130 8 -268 11 -137 3 -262 7 -277 9 -15 2 -46 21 -70 44 -24 22 -68
60 -98 84 -56 45 -84 92 -41 68 12 -6 21 -9 21 -6 0 2 27 -5 61 -15 33 -10 71
-19 82 -19 21 1 21 1 4 11 -10 6 -55 23 -100 38 -145 49 -211 77 -277 117 -36
22 -82 48 -104 59 -21 11 -59 38 -84 61 -40 36 -46 46 -47 84 l-1 42 18 -23
c75 -98 107 -132 131 -145 16 -9 31 -13 34 -11 6 6 -23 64 -36 72 -19 11 -82
125 -79 142 2 10 34 -25 91 -100 86 -114 118 -147 144 -147 23 0 14 18 -63
132 -142 210 -105 195 58 -24 74 -100 113 -138 138 -138 11 0 -38 82 -123 208
-54 78 -70 122 -46 122 5 0 8 -4 5 -9z m-5041 -22 c-9 -26 -43 -67 -68 -81
-17 -9 -17 -7 -7 14 12 22 70 88 78 88 2 0 0 -9 -3 -21z m3405 2 c74 -6 169
-13 210 -17 41 -3 107 -2 145 3 89 13 578 -1 621 -16 17 -7 59 -43 93 -81 59
-66 154 -132 262 -183 88 -41 304 -180 401 -257 59 -47 105 -86 104 -88 -7 -6
-4769 -3 -4839 4 l-75 7 70 66 c94 88 121 107 303 212 175 100 343 216 383
264 48 57 60 60 257 61 99 0 209 4 245 8 65 7 100 3 275 -29 175 -33 439 -20
745 35 97 18 137 20 250 15 88 -4 144 -3 160 4 26 11 154 9 390 -8z m-3161
-42 c-6 -13 -31 -49 -54 -79 -46 -60 -90 -140 -78 -140 5 0 30 25 58 56 42 48
50 54 56 38 6 -15 8 -12 8 12 1 25 53 114 67 114 2 0 1 -19 -2 -42 -6 -49 13
-103 73 -201 23 -38 39 -55 45 -49 7 7 -10 50 -48 126 -39 79 -54 120 -47 127
10 10 25 -10 120 -153 21 -32 44 -60 51 -63 30 -11 30 9 1 58 -54 94 -99 186
-98 204 0 14 3 12 12 -7 6 -14 20 -34 30 -45 21 -22 127 -191 127 -201 0 -20
-123 -86 -201 -107 -30 -9 -95 -27 -144 -40 -50 -14 -137 -45 -195 -70 -58
-24 -114 -47 -124 -51 -15 -5 -17 -9 -8 -18 17 -17 15 -45 -4 -52 -25 -9 -304
-7 -304 3 0 4 17 30 39 57 21 27 61 94 89 149 74 143 92 171 102 155 12 -19
82 18 98 52 14 30 159 188 172 188 19 0 -9 -72 -33 -87 -30 -19 -79 -95 -81
-126 -1 -26 3 -33 22 -35 23 -4 72 31 72 51 0 13 149 205 163 210 21 8 29 -10
16 -34z m356 -127 c25 -40 43 -78 40 -83 -12 -18 -33 -8 -45 21 -7 17 -39 72
-71 122 -33 50 -59 96 -59 102 1 19 89 -86 135 -162z m35 102 c49 -65 74 -120
65 -142 -5 -14 -8 -13 -18 6 -7 12 -31 53 -54 92 -38 61 -53 100 -38 100 2 0
23 -25 45 -56z m137 -37 c13 -27 22 -51 20 -53 -6 -7 -60 64 -79 103 -9 17
-13 35 -10 38 9 9 39 -30 69 -88z m113 40 c0 -8 -11 -24 -25 -37 -22 -21 -25
-22 -25 -5 0 19 27 55 42 55 4 0 8 -6 8 -13z m3850 -17 c20 -20 26 -40 13 -40
-15 0 -73 40 -73 50 0 17 39 11 60 -10z m-4494 -467 c-3 -11 -21 -33 -39 -50
l-32 -31 -110 7 c-60 5 -101 9 -90 9 12 1 26 7 33 14 7 7 46 13 95 14 85 3
117 10 117 25 0 11 23 39 28 34 2 -2 1 -12 -2 -22z"/>
<path d="M7017 7298 c-22 -16 -20 -17 114 -69 65 -25 92 -43 159 -106 104 -98
145 -177 160 -307 13 -123 3 -3516 -11 -3571 -33 -124 -132 -235 -271 -304
-47 -22 -87 -41 -91 -41 -3 0 -18 -5 -34 -12 -99 -40 -127 -41 -1243 -44
-3194 -8 -3280 -8 -3475 14 -351 39 -470 114 -600 376 -38 78 -55 101 -70 101
-27 0 -30 -30 -11 -106 28 -109 73 -188 150 -265 39 -38 94 -83 121 -98 52
-28 165 -63 242 -75 l44 -6 -1 -258 -1 -257 27 -10 c15 -6 29 -8 31 -6 3 3 8
118 11 255 5 230 6 251 22 251 10 0 21 -7 24 -16 3 -9 6 -121 6 -250 l0 -234
30 0 30 0 0 236 0 235 23 -3 22 -3 3 -233 2 -232 29 0 28 0 7 92 c3 50 6 158
6 240 0 138 1 148 19 148 26 0 31 -50 31 -287 l0 -194 28 3 27 3 5 230 c3 127
7 231 8 233 1 1 9 2 17 2 8 0 16 -1 17 -2 1 -2 4 -106 7 -233 l6 -230 27 -3
28 -3 2 233 3 233 25 0 25 0 3 -233 2 -232 30 0 30 0 0 230 c0 219 1 230 19
230 10 0 22 -7 25 -16 3 -9 6 -109 6 -224 l0 -208 29 -4 28 -4 7 120 c3 65 6
167 6 225 l0 106 1778 1 c977 1 1908 2 2067 4 160 1 312 -1 339 -5 l49 -8 -7
-207 c-3 -114 -3 -215 0 -224 3 -9 17 -16 32 -16 l25 0 -7 223 -7 223 28 -2
28 -1 3 -221 2 -222 35 0 35 0 0 220 0 220 25 0 25 0 0 -220 0 -220 35 0 35 0
0 225 c0 218 1 225 20 225 19 0 20 -7 20 -118 0 -66 3 -167 7 -225 l6 -107 29
0 28 0 0 224 c0 124 4 227 9 230 5 4 16 3 25 0 14 -5 16 -35 16 -231 l0 -224
33 3 32 3 5 230 c4 200 7 230 21 233 14 2 17 -19 22 -164 4 -92 7 -198 7 -236
l0 -68 30 0 30 0 0 230 c0 199 2 231 15 237 9 3 19 2 23 -2 4 -3 9 -110 11
-236 l3 -229 34 0 34 0 0 226 c0 225 5 264 35 264 13 0 15 -37 15 -245 l0
-245 30 0 30 0 2 262 3 262 90 18 c191 38 315 130 396 292 36 73 44 100 47
159 4 65 3 69 -12 56 -41 -35 -56 -56 -96 -134 -85 -169 -171 -232 -411 -305
-124 -38 -152 -42 -379 -61 -248 -21 -572 -21 -593 0 -5 5 14 16 45 26 105 34
183 83 262 164 95 98 132 172 146 292 7 55 10 691 8 1829 -3 1629 -4 1749 -21
1803 -37 126 -117 243 -209 311 -79 57 -269 96 -311 64z"/>
<path d="M8127 7298 l-28 -10 23 -20 c13 -11 57 -36 98 -56 100 -48 198 -146
259 -260 48 -89 63 -107 85 -99 21 8 10 76 -26 164 -33 81 -123 187 -192 228
-81 47 -171 69 -219 53z"/>
<path d="M3440 7190 c-1238 -6 -1245 -6 -1308 -27 -92 -32 -140 -63 -218 -145
-60 -63 -74 -86 -104 -163 -28 -75 -35 -108 -40 -200 -8 -144 -3 -3027 5
-3169 6 -101 9 -116 49 -200 75 -160 164 -233 335 -277 61 -16 134 -21 376
-29 378 -12 4200 -4 4345 9 231 20 372 110 441 280 l23 56 2 868 c1 477 -1
869 -5 871 -3 2 -41 1 -83 -1 l-77 -6 -1 -533 0 -534 44 0 c35 0 48 -5 56 -19
19 -37 12 -58 -21 -65 -17 -3 -203 -6 -414 -6 l-382 0 -6 -182 c-4 -99 -7
-286 -7 -414 0 -216 -1 -232 -17 -229 -10 2 -355 6 -768 9 -412 3 -762 9 -777
12 -27 6 -37 27 -19 38 25 16 304 26 491 19 l206 -8 0 167 c0 115 -3 164 -11
159 -25 -21 -252 -102 -337 -122 -189 -43 -215 -48 -295 -55 l-83 -7 0 -103 0
-104 -50 0 -50 0 0 105 0 105 -59 0 c-130 0 -447 71 -584 131 -77 34 -134 67
-360 206 l-52 31 -8 -36 c-5 -21 -6 -73 -2 -117 3 -44 5 -123 4 -175 -5 -207
-8 -185 26 -182 70 7 915 6 968 -2 45 -6 57 -11 55 -24 -2 -8 -14 -19 -28 -22
-40 -11 -773 -21 -957 -14 l-168 7 1 286 c0 157 4 301 9 320 7 34 5 37 -77
114 l-85 80 -282 1 -281 1 0 -377 0 -376 315 -1 c173 -1 322 -4 330 -7 24 -10
18 -41 -10 -48 -14 -4 -176 -6 -360 -6 -185 1 -340 -2 -345 -5 -17 -10 -20 79
-18 452 l3 373 -445 2 -445 3 -3 33 c-2 23 2 38 13 46 15 11 18 59 26 432 8
361 19 548 31 559 2 1 20 5 41 9 l39 7 -4 -500 -3 -501 63 0 64 0 -3 534 -3
533 -90 7 c-49 3 -115 6 -148 6 l-58 0 0 40 c0 40 0 40 38 40 l37 0 4 520 c4
547 4 550 -40 550 -15 0 -19 7 -19 34 l0 33 133 6 c72 3 277 5 454 4 l321 -2
-2 402 -2 401 43 4 43 3 0 -396 0 -396 288 4 287 4 65 65 65 64 0 138 c0 75 4
222 9 325 l9 189 30 -6 c16 -3 37 -6 47 -6 10 0 20 -10 23 -21 5 -19 10 -20
39 -14 59 13 285 16 446 6 159 -11 202 -17 202 -31 0 -17 -44 -21 -262 -27
l-228 -6 0 -149 c0 -81 1 -148 3 -148 2 0 32 14 68 31 75 37 297 112 413 140
45 10 106 19 137 19 31 0 97 3 148 7 l92 6 -3 99 -3 98 32 0 c17 0 38 3 47 6
14 5 16 -7 16 -100 l0 -106 38 0 c20 0 109 -9 197 -19 131 -16 187 -28 305
-66 80 -26 156 -54 168 -62 13 -8 25 -13 27 -11 7 8 15 244 8 255 -5 7 -65 14
-162 20 -102 5 -156 12 -158 20 -6 16 121 27 224 19 76 -5 82 -4 88 14 5 16
15 20 50 20 l43 0 2 -192 c0 -131 4 -196 12 -206 15 -18 119 -87 170 -113 30
-15 38 -17 38 -5 0 7 21 37 46 65 l46 51 -100 0 c-89 0 -100 2 -105 19 -2 10
-2 23 2 29 3 5 52 14 109 18 l102 9 -94 96 c-86 87 -120 139 -102 157 4 3 13
2 20 -3 7 -6 35 -26 61 -45 76 -54 130 -106 151 -145 21 -40 30 -43 39 -14 9
28 142 167 176 185 15 7 34 11 42 8 25 -9 7 -45 -47 -99 -28 -27 -67 -70 -87
-95 l-36 -45 99 -1 c55 -1 102 -4 105 -7 3 -4 3 -18 -1 -32 -6 -25 -7 -25
-111 -25 -58 0 -105 -4 -105 -9 0 -4 43 -49 95 -100 53 -50 93 -96 90 -101 -9
-15 -72 -12 -105 5 -30 16 -61 66 -74 120 -19 76 -52 73 -133 -12 l-64 -68 79
-75 c44 -41 87 -90 98 -107 l18 -33 127 0 c70 0 134 -2 141 -5 14 -5 15 142 5
648 l-2 137 41 0 41 0 6 -232 c4 -128 7 -308 7 -399 l0 -166 413 -7 c226 -4
420 -9 430 -12 9 -3 17 -12 17 -19 0 -9 -6 -12 -15 -9 -10 4 -18 -3 -25 -20
-8 -22 -16 -26 -48 -26 l-39 0 -6 -297 c-9 -397 -9 -612 -1 -704 l6 -76 57 -6
c31 -3 63 -8 73 -12 12 -5 18 1 22 22 3 15 4 397 2 848 -4 850 -4 864 -46 945
-46 90 -156 179 -285 230 -56 22 -75 24 -280 27 -476 6 -2112 8 -3295 3z
m2676 -141 c32 -8 41 -14 32 -20 -26 -17 -238 -7 -238 12 0 19 140 24 206 8z
m-3094 -72 c23 -18 71 -70 107 -115 l63 -83 14 26 c8 15 43 60 80 100 69 78
142 121 166 97 22 -22 -3 -61 -81 -126 -44 -36 -88 -81 -99 -99 l-19 -34 55 9
c31 5 83 8 116 6 55 -3 61 -5 58 -23 -7 -48 -7 -48 -107 -42 -57 4 -95 3 -95
-3 0 -16 57 -75 115 -120 30 -23 55 -50 55 -59 0 -25 -29 -61 -48 -61 -24 0
-121 102 -166 173 -20 32 -42 57 -49 54 -7 -2 -27 -23 -45 -48 -126 -170 -161
-201 -188 -164 -8 11 -12 25 -9 32 2 8 41 58 85 112 44 53 80 100 80 102 0 3
-30 2 -67 -2 -110 -13 -113 -12 -113 16 0 21 5 25 33 27 46 2 129 -2 150 -8 9
-3 17 -2 17 3 0 4 -43 55 -95 112 -63 69 -95 112 -95 128 0 33 30 30 82 -10z
m-452 -12 c14 -25 11 -29 -102 -142 l-115 -115 121 -118 121 -118 -24 -26
c-16 -17 -27 -22 -32 -15 -9 15 -207 217 -221 225 -6 4 -63 -46 -127 -109
-106 -106 -118 -115 -134 -102 -12 8 -17 21 -13 32 3 10 54 67 114 126 l108
108 -110 108 -110 109 18 28 19 27 113 -114 113 -115 118 118 c65 65 120 118
124 118 3 0 12 -11 19 -25z m4399 -130 c48 50 96 103 107 119 l21 29 22 -31
22 -31 -112 -108 -111 -108 33 -25 c44 -32 199 -181 199 -191 0 -4 -8 -17 -19
-30 l-19 -23 -107 112 c-59 62 -111 112 -116 112 -4 0 -58 -52 -120 -115 -62
-64 -117 -114 -122 -112 -6 2 -17 13 -25 25 -13 20 -8 27 102 134 l117 112
-111 111 c-60 60 -110 114 -110 119 0 5 8 18 18 29 17 19 20 17 130 -99 l113
-119 88 90z m-4835 -3136 c8 -11 51 -58 96 -104 l82 -84 56 62 c65 71 182 187
189 187 3 0 13 -10 23 -22 18 -23 17 -23 -101 -149 l-119 -126 59 -54 c32 -30
84 -82 116 -116 l57 -63 -20 -24 -19 -25 -118 120 -119 121 -114 -116 c-64
-64 -118 -116 -122 -116 -4 0 -15 9 -25 20 -17 19 -15 22 84 128 55 60 107
114 114 120 11 9 -11 37 -105 132 -118 120 -119 120 -102 145 l16 25 29 -21
c16 -11 35 -29 43 -40z m914 19 c33 -15 51 -34 81 -86 58 -98 69 -110 80 -92
44 72 131 171 163 185 41 20 68 15 68 -12 0 -21 -36 -83 -48 -83 -11 0 -108
-94 -120 -116 -10 -18 -5 -19 99 -16 109 4 109 4 109 -20 0 -48 -9 -51 -119
-41 -55 4 -101 5 -101 2 0 -4 44 -48 97 -97 85 -79 96 -92 84 -106 -37 -44
-144 13 -200 108 l-34 57 -43 -61 c-60 -82 -158 -150 -182 -126 -10 11 25 67
93 146 35 41 64 77 65 80 0 3 -47 3 -105 2 l-105 -4 0 32 0 31 100 -7 c70 -5
100 -4 100 4 0 6 -40 54 -90 105 -68 72 -90 101 -90 122 0 25 3 27 28 20 15
-3 46 -15 70 -27z m3740 -84 l111 -116 112 116 113 117 25 -26 26 -25 -112
-113 -111 -112 104 -110 c57 -60 103 -116 102 -124 -2 -7 -12 -19 -23 -27 -18
-12 -28 -4 -125 102 l-104 114 -122 -121 -121 -120 -16 25 c-10 14 -17 27 -17
29 0 2 51 54 112 115 l113 111 -117 118 -117 118 21 22 c12 13 25 23 28 23 4
0 57 -52 118 -116z m-2908 -283 c0 -108 -10 -133 -52 -129 l-33 3 -3 103 -3
102 46 0 45 0 0 -79z"/>
<path d="M7919 7161 c-63 -20 -153 -78 -193 -123 -24 -26 -57 -78 -72 -115
-26 -62 -29 -79 -29 -188 0 -117 1 -122 36 -196 48 -99 96 -151 177 -191 61
-30 76 -33 180 -37 110 -3 115 -2 176 28 34 17 85 52 112 78 50 48 113 154
118 196 1 13 5 27 8 32 3 6 6 37 7 71 3 79 -27 168 -85 255 -52 79 -89 109
-191 156 -80 37 -189 52 -244 34z m146 -196 l0 -115 -39 0 -39 0 7 107 c8 109
13 123 51 123 19 0 20 -7 20 -115z m-151 51 c-5 -12 -46 -36 -62 -36 -9 0 51
49 60 50 4 0 5 -6 2 -14z m312 -57 c16 -7 64 -75 64 -92 0 -11 -18 -18 -72
-27 -40 -6 -78 -13 -85 -15 -21 -7 -22 7 -3 59 11 28 21 69 24 91 2 22 5 42 5
45 1 2 14 -9 29 -26 16 -17 33 -33 38 -35z m-333 -48 c38 -40 55 -65 51 -75
-8 -21 -19 -20 -94 9 -35 14 -72 25 -82 25 -17 0 -17 2 -3 37 34 81 54 82 128
4z m-19 -137 c44 -6 46 -8 46 -40 l0 -34 -97 4 -98 3 -3 37 -3 36 54 0 c30 0
75 -3 101 -6z m194 -38 c4 -33 -13 -56 -42 -56 -28 0 -46 18 -46 46 0 57 82
66 88 10z m193 34 l69 0 0 -30 0 -30 -100 0 -100 0 0 36 c0 36 1 36 31 30 17
-3 62 -6 100 -6z m-333 -145 c2 -14 -17 -38 -62 -78 l-65 -58 -15 28 c-23 47
-36 102 -21 97 6 -3 36 4 66 15 66 24 93 23 97 -4z m257 3 c14 -6 25 -16 25
-22 0 -6 5 -5 12 2 16 16 88 16 88 0 0 -23 -89 -128 -104 -122 -29 11 -96 108
-96 138 0 19 38 21 75 4z m-125 -41 c0 -19 3 -68 6 -110 l7 -77 -39 0 -39 0
-3 104 c-3 102 -2 105 20 109 46 9 48 7 48 -26z m-131 -114 c1 -30 -2 -33 -27
-33 -30 0 -52 16 -52 37 0 7 15 29 33 49 l32 37 6 -29 c4 -16 7 -44 8 -61z
m241 -17 c-19 -24 -40 -19 -40 8 0 29 19 39 39 20 12 -11 12 -16 1 -28z"/>
<path d="M3676 6943 c-3 -42 -6 -145 -6 -229 l0 -153 63 43 c44 31 61 49 59
62 -1 10 -5 91 -9 179 -4 99 -10 163 -17 167 -6 4 -27 8 -47 8 l-36 0 -7 -77z"/>
<path d="M4549 6800 c-110 -10 -406 -95 -524 -149 -269 -125 -461 -294 -648
-574 -176 -262 -261 -519 -291 -869 l-5 -58 54 0 c29 0 60 -3 69 -6 14 -5 16
6 16 85 l0 91 30 0 30 0 0 -87 0 -88 76 0 76 0 -4 93 -4 92 39 0 38 0 -3 -90
-3 -90 84 0 83 0 -4 90 -4 90 33 0 32 0 3 -91 3 -91 83 -1 83 -2 -3 93 -3 92
38 0 37 0 0 -92 0 -93 80 3 80 4 0 89 0 89 35 0 35 0 0 -205 0 -205 -29 0
c-35 0 -41 16 -41 110 l0 65 -80 0 -80 0 0 -87 0 -88 -35 0 -35 0 0 88 0 87
-80 0 -80 0 0 -88 0 -88 -32 3 -33 3 -3 85 -3 85 -82 -2 -82 -2 3 -86 2 -86
-32 3 -33 3 -5 85 -5 85 -73 0 -72 0 0 -87 0 -88 -30 0 -30 0 0 85 0 85 -70 0
-70 0 0 -97 c0 -318 132 -682 340 -940 64 -80 244 -259 315 -313 81 -62 282
-179 405 -237 128 -61 167 -71 395 -108 135 -22 170 -24 225 -16 36 6 94 13
130 16 130 12 361 55 422 79 122 47 277 125 396 200 101 64 140 97 245 206
263 273 419 571 472 900 23 143 23 517 0 643 -47 265 -143 499 -294 722 -72
107 -273 305 -386 382 -196 133 -421 225 -630 259 -115 19 -436 27 -566 14z
m1054 -298 c26 -24 27 -30 27 -116 0 -107 6 -121 43 -107 24 9 26 16 29 70 l3
61 108 -77 c112 -78 170 -140 266 -283 61 -91 172 -326 211 -445 33 -104 52
-245 32 -245 -6 0 -14 5 -17 10 -8 14 -96 13 -152 -2 -35 -8 -50 -8 -64 1 -17
10 -129 15 -339 13 -36 0 -115 0 -176 0 -72 0 -114 -4 -119 -12 -5 -8 -10 -8
-20 0 -7 6 -53 12 -102 13 -79 2 -91 0 -120 -22 -20 -15 -50 -26 -84 -29 l-53
-5 20 34 c11 19 33 55 48 82 17 28 23 47 16 47 -18 0 -99 -62 -139 -105 -50
-55 -56 -40 -56 135 l0 149 -65 3 -65 3 -3 352 -2 353 249 0 c137 0 255 2 264
6 19 7 27 48 27 133 0 117 -3 115 108 58 53 -27 109 -61 125 -75z m-1409 77
c3 -17 6 -58 6 -90 0 -32 4 -69 10 -83 l10 -26 255 0 255 0 0 -55 0 -55 -90 0
c-49 0 -90 3 -90 8 0 4 -134 6 -299 4 l-299 -3 -6 53 c-3 29 -7 79 -8 112 -2
69 1 73 127 129 101 46 121 47 129 6z m-290 -156 c3 -21 6 -59 6 -85 l0 -48
-112 0 -112 0 39 41 c41 43 151 129 165 129 4 0 10 -17 14 -37z m682 -769 c-3
-26 -6 -70 -6 -98 l0 -51 -15 29 c-18 34 -20 137 -3 154 23 23 31 12 24 -34z
m218 -50 c14 -5 16 -35 16 -229 l0 -223 33 -5 c17 -3 93 -3 168 0 152 7 204 0
214 -25 14 -37 -19 -43 -223 -40 l-192 3 0 -232 0 -233 -35 0 -34 0 5 158 c2
86 6 190 8 230 l4 72 -245 0 -245 0 7 33 c9 37 20 47 58 47 23 0 27 3 22 23
-12 46 -22 127 -17 132 9 8 62 6 62 -3 0 -5 -7 -31 -15 -58 -23 -76 -20 -91
18 -97 17 -4 104 -9 191 -13 l159 -7 -7 220 c-6 196 -5 222 9 237 19 18 18 18
39 10z m552 -371 l-1 -88 83 -5 82 -5 0 93 0 92 30 0 30 0 0 -89 0 -90 85 -3
85 -3 0 93 0 92 36 0 36 0 -4 -89 -3 -90 82 -3 82 -3 3 90 3 90 33 3 32 3 0
-93 0 -94 68 7 c37 4 70 5 75 2 4 -2 7 34 7 81 0 47 3 86 8 86 4 0 17 3 30 6
22 6 22 5 22 -85 l0 -91 79 0 c63 0 80 -3 85 -16 11 -28 -4 -34 -85 -34 l-79
0 0 -85 c0 -84 0 -85 -25 -85 -20 0 -25 6 -31 34 -3 19 -4 58 -2 88 l3 53 -81
0 -81 1 5 -89 5 -88 -34 3 -34 3 -3 85 -3 85 -82 -2 -82 -2 3 -81 4 -81 -34 3
-33 3 -3 93 c-2 83 -4 91 -18 77 -11 -10 -36 -15 -85 -15 l-69 0 0 -85 0 -85
-30 0 -30 0 0 97 c0 75 -3 94 -12 85 -7 -7 -41 -12 -84 -12 l-71 0 1 -82 1
-83 -30 0 -30 0 -3 192 -2 192 27 4 c16 2 31 5 34 6 3 0 5 -38 5 -86z m-972
-246 c11 -42 11 -42 -26 -51 -27 -6 -28 -5 -28 37 0 24 3 47 7 51 16 16 39 -2
47 -37z m-318 -104 c5 -10 10 -197 12 -416 l3 -398 -29 3 -30 3 -6 376 c-3
238 -1 390 5 413 11 39 31 47 45 19z m497 -155 c8 -207 9 -653 2 -660 -3 -3
-16 -3 -29 -1 l-23 5 -6 405 c-3 224 -4 410 -1 415 3 4 15 8 28 8 23 0 23 -1
29 -172z m-979 145 c4 -16 10 -576 7 -735 l-1 -68 -38 0 c-45 0 -54 9 -136
127 -99 143 -177 336 -221 548 -25 117 -30 110 83 109 53 -1 122 -4 153 -8 44
-6 63 -4 88 8 17 9 31 21 31 26 0 17 28 11 34 -7z m896 -62 c-7 -45 -10 -193
-8 -402 3 -297 1 -333 -13 -342 -9 -6 -24 -7 -33 -4 -14 6 -16 45 -16 399 l0
393 38 16 c20 9 38 15 40 14 1 -1 -2 -34 -8 -74z m698 -321 c-3 -336 -5 -400
-17 -400 -12 0 -13 37 -8 243 9 308 19 557 24 557 2 0 2 -180 1 -400z m-1322
356 l24 -6 0 -385 0 -385 -30 0 -30 0 1 408 c1 224 3 400 6 390 2 -9 15 -19
29 -22z m1283 -86 c-2 -84 -3 -89 -9 -45 -12 75 -12 173 0 155 5 -8 9 -58 9
-110z m533 23 c6 -295 2 -703 -7 -700 -14 5 -19 797 -5 797 6 0 11 -40 12 -97z
m-1392 -312 l0 -399 -26 -6 c-15 -4 -29 -4 -33 -1 -9 9 -14 582 -6 703 l7 102
29 0 29 0 0 -399z m970 -56 c2 -185 6 -280 10 -235 5 56 7 63 8 30 1 -25 5
-62 8 -82 6 -35 5 -38 -17 -38 l-24 0 -1 393 c0 215 3 358 6 317 4 -41 9 -214
10 -385z m193 56 c-2 -207 -7 -377 -11 -379 -4 -1 -9 10 -11 25 -6 53 11 755
19 743 4 -7 6 -182 3 -389z m493 20 c3 -369 1 -411 -23 -411 -13 0 -14 11 -9
63 3 34 7 211 8 394 2 202 6 326 12 316 5 -9 10 -172 12 -362z m409 327 c-13
-94 -73 -319 -99 -372 -14 -28 -40 -73 -58 -101 l-32 -50 -7 45 c-4 25 -8 150
-9 279 l-1 234 78 -2 c43 -1 85 3 93 9 34 22 42 12 35 -42z m-2560 -726 c-5
-29 -10 -33 -33 -30 l-27 3 -3 358 c-1 197 1 372 6 390 6 22 16 33 33 37 l24
6 3 -366 c1 -201 0 -380 -3 -398z m587 376 c3 -216 2 -397 -3 -401 -12 -15
-46 2 -53 26 -8 29 -8 715 0 745 4 14 14 22 29 22 l23 0 4 -392z m-696 368 c1
-1 3 -172 5 -381 l4 -380 -30 -3 -30 -3 -2 391 -3 390 28 -6 c15 -4 28 -7 28
-8z m502 -378 l-3 -393 -25 0 -25 0 -3 384 c-2 403 -3 400 41 401 16 0 17 -23
15 -392z m1212 1 c0 -246 -4 -379 -10 -379 -6 0 -10 135 -10 386 0 254 3 383
10 379 6 -4 10 -143 10 -386z m112 -122 c2 -190 0 -247 -9 -247 -10 0 -12 86
-11 383 1 303 3 354 9 247 4 -74 9 -246 11 -383z m116 127 c-3 -325 -5 -374
-18 -374 -13 0 -15 49 -15 378 -1 207 1 359 2 337 2 -22 7 -110 12 -195 l9
-155 -2 197 c0 108 2 194 7 191 4 -2 6 -173 5 -379z m123 -328 c-7 -55 -27
-72 -37 -31 -3 14 -1 130 5 258 6 128 11 273 11 322 0 50 4 108 8 130 9 49 22
-609 13 -679z m105 590 c3 -52 9 -83 14 -76 5 7 6 55 3 107 -5 76 -3 93 8 93
12 0 13 -24 7 -142 -4 -79 -7 -252 -7 -385 -1 -237 -1 -243 -21 -243 -20 0
-20 5 -19 388 1 213 3 378 5 367 2 -11 6 -60 10 -109z m244 -78 c0 -112 3
-246 6 -298 5 -66 2 -109 -7 -140 -13 -42 -14 -33 -21 160 -7 222 0 480 13
480 5 0 9 -91 9 -202z m-2106 155 c3 -21 6 -194 6 -385 l0 -348 -35 0 -35 0 0
385 0 385 29 0 c25 0 29 -4 35 -37z m1347 -50 c5 -384 3 -673 -6 -670 -12 4
-15 757 -3 757 4 0 9 -39 9 -87z m198 -492 c1 -63 4 -92 11 -85 6 6 11 138 13
334 l2 325 2 -372 c2 -304 0 -373 -11 -373 -22 0 -26 58 -30 410 -3 310 -3
317 4 95 4 -132 8 -283 9 -334z m264 472 c11 -171 8 -653 -3 -653 -6 0 -10 53
-11 138 -4 512 -3 622 2 622 3 0 9 -48 12 -107z m202 -267 c0 -206 -4 -378 -8
-382 -14 -15 -28 20 -22 56 2 19 5 185 5 368 0 259 3 332 13 332 9 0 12 -82
12 -374z m-980 32 c-4 -178 -8 -343 -9 -368 -1 -39 -4 -45 -21 -42 -11 2 -21
5 -21 5 -7 8 -4 487 3 537 6 47 8 -14 6 -220 -2 -284 8 -397 20 -219 11 147 8
557 -3 564 -5 3 -10 19 -10 36 0 23 4 29 21 29 l22 0 -8 -322z m42 94 c1 -120
4 -281 8 -359 5 -125 4 -143 -9 -143 -14 0 -16 42 -16 367 0 201 3 363 8 359
4 -4 8 -105 9 -224z m976 -24 c4 -134 10 -285 14 -335 4 -62 2 -93 -4 -93 -7
0 -13 54 -17 143 -9 203 -12 536 -5 531 3 -2 9 -113 12 -246z m-751 -55 c-8
-30 -10 -6 -9 112 l0 150 10 -112 c6 -74 6 -125 -1 -150z m-162 -120 c0 -191
-4 -304 -10 -308 -7 -4 -10 104 -10 317 0 212 4 318 10 308 6 -9 10 -139 10
-317z m-476 226 c8 -41 17 -180 20 -310 l6 -237 -25 -4 c-13 -3 -27 -3 -30 0
-3 3 -5 149 -5 326 0 331 6 374 34 225z m433 4 c-3 -10 -5 -4 -5 12 0 17 2 24
5 18 2 -7 2 -21 0 -30z m-155 -315 c3 -147 0 -218 -7 -218 -7 0 -9 77 -6 237
5 283 9 277 13 -19z m-106 155 c-3 -43 -9 -142 -12 -221 -6 -129 -9 -144 -28
-157 -11 -8 -24 -15 -28 -15 -10 0 -10 217 -1 363 l6 107 35 0 35 0 -7 -77z
m391 -285 c-1 -51 -3 -12 -3 87 0 99 2 141 3 93 2 -48 2 -129 0 -180z m-360
-335 c-5 -130 -4 -164 6 -154 8 8 13 62 16 161 l3 148 27 -3 26 -2 -3 -104
c-1 -57 -5 -128 -8 -156 -4 -44 -3 -53 10 -53 13 0 16 23 18 157 3 143 5 158
21 161 17 4 18 -6 15 -152 -2 -120 0 -156 10 -156 9 0 12 38 12 154 l0 155 31
-1 32 -1 -7 -141 c-4 -78 -11 -143 -17 -144 -13 -5 -1 -22 16 -22 10 0 15 36
20 155 7 141 9 155 26 155 17 0 18 -10 12 -155 -4 -138 -3 -155 11 -155 14 0
16 20 16 155 0 127 3 155 14 155 19 0 29 -92 24 -218 -2 -69 0 -92 10 -92 9 0
12 38 12 155 0 85 4 155 8 155 26 0 32 -30 32 -167 0 -89 4 -143 10 -143 6 0
10 57 10 150 0 143 1 150 20 150 11 0 19 -3 19 -7 -1 -5 -1 -73 0 -153 1 -94
5 -139 11 -129 5 9 8 78 7 155 -2 115 0 139 12 139 11 0 14 -15 12 -68 -1 -37
1 -109 6 -160 l8 -92 5 160 c7 210 23 211 31 2 3 -86 9 -160 12 -164 4 -3 5
68 4 158 -2 153 -1 164 16 164 17 0 19 -13 20 -176 l2 -175 -41 -27 c-23 -15
-58 -34 -77 -42 -57 -24 -282 -66 -388 -72 -97 -6 -99 -6 -108 18 -9 22 -10
22 -10 -11 -2 -61 -20 -110 -41 -110 -18 0 -20 7 -20 78 0 42 -3 109 -6 147
-4 51 -3 66 5 55 8 -11 11 33 11 158 l0 172 42 0 41 0 -6 -167z m-917 9 c0
-92 -3 -132 -10 -122 -13 20 -13 273 0 265 6 -4 10 -62 10 -143z m380 -13 c0
-93 -4 -149 -10 -149 -6 0 -10 59 -10 156 0 101 3 153 10 149 6 -4 10 -67 10
-156z m270 42 c0 -142 -8 -205 -25 -191 -10 8 -12 45 -9 148 5 147 8 167 24
157 6 -4 10 -52 10 -114z m50 -36 c0 -131 -2 -155 -15 -155 -13 0 -15 23 -15
148 0 82 3 152 7 155 19 20 23 -6 23 -148z m60 0 c0 -131 -2 -155 -15 -155
-13 0 -15 24 -15 155 0 131 2 155 15 155 13 0 15 -24 15 -155z m60 77 c0 -121
-11 -232 -24 -232 -8 0 -10 47 -8 155 2 127 6 155 17 155 12 0 15 -17 15 -78z
m-750 -77 c0 -90 -4 -145 -10 -145 -6 0 -10 53 -10 138 0 122 3 152 17 152 2
0 3 -65 3 -145z m49 -7 l-2 -153 -8 140 c-8 131 -7 165 6 165 3 0 4 -69 4
-152z m56 7 c7 -128 4 -169 -9 -154 -8 9 -14 299 -6 299 4 0 11 -65 15 -145z
m54 -153 c-7 -17 -19 114 -19 213 0 39 3 75 8 79 9 9 20 -273 11 -292z m90
200 c-1 -48 -5 -116 -9 -152 -5 -51 -7 -32 -8 93 -1 103 1 156 8 152 6 -3 9
-45 9 -93z m133 -19 l1 -118 12 120 c15 157 26 128 17 -45 l-7 -135 -32 -2
-33 -3 0 134 c0 142 4 166 26 166 11 0 14 -24 16 -117z m77 -100 c1 -68 -2
-83 -14 -83 -13 0 -15 23 -15 143 0 79 3 147 8 151 8 9 19 -96 21 -211z m54
120 c12 -174 10 -203 -13 -203 -19 0 -20 7 -20 150 0 119 3 150 13 150 10 0
16 -26 20 -97z m982 -35 c8 -161 6 -192 -17 -196 -17 -3 -18 10 -18 162 0 136
3 166 14 166 11 0 15 -29 21 -132z m59 95 c7 -47 6 -198 -3 -237 -3 -16 -11
-31 -17 -33 -12 -4 -27 267 -17 293 10 27 30 13 37 -23z m56 -95 c-4 -116 -7
-133 -22 -136 -16 -3 -18 8 -18 132 0 134 0 136 23 136 22 0 22 0 17 -132z
m63 35 c-5 -119 -8 -139 -28 -147 -13 -5 -15 12 -15 119 0 124 0 125 23 125
23 0 23 -1 20 -97z m47 3 c0 -71 -4 -97 -15 -106 -13 -11 -15 0 -15 94 0 88 3
106 15 106 12 0 15 -17 15 -94z m160 58 c-8 -35 -23 -51 -70 -76 -14 -7 -33
-23 -43 -35 -10 -13 -23 -23 -28 -23 -5 0 -9 38 -9 84 l0 84 79 1 79 1 -8 -36z
m-1683 -191 c-1 -43 -3 -10 -3 72 0 83 2 118 3 78 2 -40 2 -107 0 -150z"/>
<path d="M5723 4200 c0 -36 2 -50 4 -32 2 17 2 47 0 65 -2 17 -4 3 -4 -33z"/>
<path d="M5023 3910 c0 -41 2 -58 4 -37 2 20 2 54 0 75 -2 20 -4 3 -4 -38z"/>
<path d="M5022 3790 c0 -19 2 -27 5 -17 2 9 2 25 0 35 -3 9 -5 1 -5 -18z"/>
<path d="M5793 3915 c0 -22 2 -30 4 -17 2 12 2 30 0 40 -3 9 -5 -1 -4 -23z"/>
<path d="M3185 6230 c-60 -4 -159 -8 -218 -9 l-109 -1 4 -540 3 -540 62 0 63
0 0 45 c0 111 33 337 69 470 35 126 108 293 170 385 20 30 49 75 63 100 14 25
35 54 47 64 12 11 21 23 21 28 0 9 -4 8 -175 -2z"/>
<path d="M6180 6233 c0 -3 27 -46 60 -94 33 -48 77 -126 96 -174 20 -47 40
-85 45 -85 11 0 12 137 3 268 l-7 92 -98 0 c-55 0 -99 -3 -99 -7z"/>
<path d="M7873 6220 c-60 -24 -149 -109 -181 -174 -59 -118 -49 -302 24 -417
60 -96 182 -153 329 -153 71 -1 87 3 145 33 117 59 185 146 215 273 42 181
-51 366 -213 429 -84 32 -248 37 -319 9z m187 -360 c0 -272 -1 -290 -17 -289
-49 2 -48 -4 -50 297 l-2 282 34 0 34 0 1 -290z m-130 0 c0 -184 -3 -270 -11
-270 -6 0 -20 5 -31 11 -20 11 -20 15 -13 257 6 209 9 249 23 260 9 6 19 12
24 12 4 0 8 -121 8 -270z m238 -2 c2 -253 2 -257 -19 -263 -11 -4 -23 -4 -26
-1 -7 7 -8 64 -5 314 l2 213 23 -3 22 -3 3 -257z m-348 70 c0 -73 -3 -164 -7
-201 l-6 -68 -18 28 c-56 88 -38 373 23 373 4 0 8 -60 8 -132z m447 113 c41
-39 43 -284 2 -350 -24 -40 -35 -39 -44 5 -8 43 5 364 15 364 3 0 16 -9 27
-19z"/>
<path d="M6480 6210 c0 -3 0 -126 0 -273 1 -244 3 -287 30 -470 17 -111 30
-230 30 -264 l0 -63 48 0 49 0 -4 488 c-2 268 -6 511 -9 540 l-6 53 -69 -3
c-38 -2 -69 -5 -69 -8z"/>
<path d="M2036 6179 c-3 -17 -6 -259 -6 -537 l0 -505 38 7 c20 3 47 6 60 6
l22 0 0 508 c0 279 -3 517 -6 530 -5 19 -13 22 -54 22 -45 0 -48 -2 -54 -31z"/>
<path d="M2265 6192 c-3 -8 -5 -36 -5 -63 l0 -50 48 3 c44 3 47 5 50 32 2 16
1 44 -2 62 -6 30 -9 32 -46 30 -23 0 -42 -7 -45 -14z"/>
<path d="M2467 6204 c-4 -4 -7 -218 -7 -476 0 -394 -2 -474 -15 -505 -21 -49
-20 -97 1 -89 9 3 44 6 79 6 l63 0 4 193 c2 144 0 194 -9 202 -10 8 -14 91
-15 340 l-3 330 -45 3 c-25 2 -49 0 -53 -4z"/>
<path d="M2666 5883 c-3 -181 -9 -404 -12 -496 -3 -93 -3 -188 1 -213 l6 -44
66 0 66 0 -7 38 c-3 20 -6 263 -6 540 l0 502 -54 0 -54 0 -6 -327z"/>
<path d="M6725 6138 c-3 -40 -4 -127 -1 -193 2 -66 5 -276 5 -467 l1 -348 65
0 65 0 0 540 0 540 -64 0 -64 0 -7 -72z"/>
<path d="M6950 5698 c1 -282 4 -526 6 -543 l5 -30 65 3 64 4 -2 536 -3 537
-68 3 -68 3 1 -513z"/>
<path d="M2272 5954 c-42 -29 -22 -104 27 -104 49 0 86 64 54 92 -29 25 -57
29 -81 12z"/>
<path d="M2266 5735 c-33 -33 -9 -87 38 -87 15 0 37 9 49 21 l21 21 -20 27
c-25 33 -65 41 -88 18z"/>
<path d="M2274 5542 c-6 -4 -16 -17 -23 -30 -10 -19 -8 -26 13 -47 14 -14 30
-25 36 -25 20 0 49 20 60 41 24 43 -43 90 -86 61z"/>
<path d="M7895 5409 c-46 -17 -115 -74 -151 -125 -130 -183 -48 -476 151 -539
81 -25 213 -18 280 15 113 55 176 154 183 286 6 109 -13 172 -75 249 -71 88
-134 117 -260 121 -56 2 -111 -1 -128 -7z m236 -125 c26 -13 57 -37 69 -54 26
-36 60 -130 60 -164 0 -37 -38 -132 -66 -165 -54 -65 -213 -80 -305 -30 -95
52 -134 184 -89 302 25 66 64 101 143 129 63 22 121 17 188 -18z"/>
<path d="M7933 5220 c-67 -45 -95 -169 -53 -238 46 -75 180 -94 243 -35 73 69
74 173 3 251 -31 33 -39 36 -97 39 -52 3 -70 0 -96 -17z m108 -80 c19 -11 49
-59 49 -80 0 -23 -49 -60 -79 -60 -37 0 -43 9 -43 64 0 74 26 101 73 76z"/>
<path d="M2258 5265 l5 -65 -44 0 -44 0 -3 -115 -3 -115 26 -10 c15 -6 38 -10
52 -10 23 0 25 -3 19 -32 -4 -25 -10 -737 -7 -900 1 -27 3 -28 54 -28 l52 0 1
342 c0 189 4 432 9 540 l8 197 -69 3 -69 3 -3 33 -3 34 65 -4 c64 -3 65 -3 70
26 3 16 6 57 6 91 0 72 -4 75 -80 75 l-48 0 6 -65z"/>
<path d="M2428 4933 c-3 -130 -1 -150 15 -165 16 -17 17 -49 17 -398 l0 -380
54 0 54 0 6 253 c3 138 9 381 12 538 l6 286 -53 6 c-30 4 -66 7 -81 7 l-27 0
-3 -147z"/>
<path d="M2656 4795 c4 -148 8 -391 8 -540 l1 -270 55 0 55 0 0 100 c1 55 2
287 3 515 l2 415 31 14 c45 20 25 29 -75 33 l-89 3 9 -270z"/>
<path d="M2854 5038 c3 -13 6 -256 6 -540 l0 -518 245 0 c135 0 245 3 245 8 0
4 -20 32 -45 62 -42 51 -123 177 -159 247 -74 146 -140 421 -154 645 l-7 113
-69 3 c-67 3 -68 3 -62 -20z"/>
<path d="M6540 5000 c0 -83 -17 -235 -40 -358 -17 -86 -20 -147 -20 -378 l0
-274 75 0 75 0 0 248 c0 137 3 378 7 535 l6 287 -51 0 -52 0 0 -60z"/>
<path d="M6725 4858 c-3 -112 -5 -354 -3 -537 l3 -335 65 1 65 1 3 531 2 531
-49 0 c-27 0 -56 3 -64 6 -13 4 -16 -25 -22 -198z"/>
<path d="M6950 4519 c0 -489 2 -541 16 -535 9 3 40 6 70 6 l54 0 0 535 0 535
-70 0 -70 0 0 -541z"/>
<path d="M7892 4619 c-100 -39 -200 -165 -222 -279 -12 -65 2 -173 31 -235 32
-68 102 -140 167 -172 50 -25 68 -28 152 -28 83 0 103 4 156 28 84 39 166 123
199 204 46 114 30 256 -41 356 -40 56 -139 122 -204 136 -79 17 -178 13 -238
-10z m106 -187 c-3 -88 -5 -96 -28 -113 -33 -22 -189 -34 -196 -14 -20 52 83
193 161 219 62 22 66 16 63 -92z m171 68 c79 -57 131 -159 131 -254 0 -80 -76
-177 -169 -219 -67 -30 -183 -21 -248 19 -58 36 -103 106 -111 170 -5 44 -3
47 14 39 10 -4 51 -10 89 -13 47 -3 79 -11 98 -24 26 -19 27 -23 27 -107 l0
-88 33 10 33 11 -4 71 -3 70 49 52 c49 51 53 63 23 63 -8 0 -30 14 -48 32 -25
24 -33 41 -33 67 -1 20 -7 54 -15 76 -8 22 -15 43 -15 46 0 4 24 7 54 8 45 0
61 -5 95 -29z m-111 -192 c24 -24 8 -78 -24 -78 -15 0 -44 27 -44 41 0 11 37
49 48 49 4 0 13 -5 20 -12z"/>
<path d="M8063 4425 c0 -22 2 -30 4 -17 2 12 2 30 0 40 -3 9 -5 -1 -4 -23z"/>
<path d="M6331 4243 c-17 -35 -60 -108 -96 -163 l-65 -100 105 0 105 0 -1 143
c-1 186 -6 201 -48 120z"/>
<path d="M6223 3893 l-132 -4 -53 -62 c-29 -35 -82 -86 -117 -113 -36 -27 -66
-54 -68 -59 -2 -6 10 -18 25 -28 16 -9 57 -43 91 -76 46 -44 61 -54 61 -40 0
10 3 19 8 19 12 0 59 82 73 128 7 23 17 42 23 43 6 0 33 4 61 8 100 17 96 -11
-15 -119 -43 -41 -82 -85 -88 -96 -11 -22 -11 -22 98 -16 103 5 110 4 109 -14
-2 -55 -9 -58 -113 -55 -96 3 -97 2 -87 -18 7 -11 40 -44 74 -72 75 -62 87
-76 87 -106 0 -43 -43 -29 -124 42 -41 36 -84 77 -95 91 l-19 25 -30 -43 c-55
-80 -168 -166 -189 -144 -11 11 25 68 92 146 l65 75 -100 9 c-96 8 -100 9
-100 31 0 13 3 26 8 28 4 3 50 2 102 -2 52 -4 97 -6 100 -4 2 2 -28 36 -68 74
-39 39 -72 75 -72 81 0 11 -72 -28 -134 -73 l-39 -29 2 -176 c1 -97 4 -181 7
-188 3 -8 104 -12 354 -13 l350 -2 0 380 c0 208 -3 378 -7 377 -5 -1 -67 -4
-140 -5z"/>
<path d="M7920 3811 c-196 -61 -300 -225 -288 -453 5 -103 46 -193 121 -268
91 -92 193 -123 322 -101 143 25 256 117 315 256 30 71 34 90 34 170 0 69 -5
104 -23 152 -42 113 -148 205 -275 239 -55 15 -165 17 -206 5z m140 -191 l0
-110 -30 0 c-35 0 -34 -3 -35 127 l0 93 33 0 32 0 0 -110z m153 30 c32 -29 62
-67 71 -91 9 -23 16 -43 14 -44 -2 -1 -45 -6 -97 -10 -81 -6 -93 -5 -88 8 3 8
9 48 12 88 11 120 11 120 88 49z m-283 -29 c0 -38 3 -82 6 -99 l6 -30 -48 5
c-27 3 -71 8 -97 12 l-49 6 34 65 c25 48 44 70 73 87 67 38 75 34 75 -46z
m124 -187 c37 -37 6 -91 -41 -73 -18 6 -23 16 -23 43 0 45 34 61 64 30z m-134
-29 l0 -36 -97 3 c-85 3 -98 5 -101 21 -7 37 4 42 102 45 l96 3 0 -36z m380
26 c19 -5 25 -14 25 -34 0 -15 -3 -27 -7 -27 -5 0 -48 0 -98 0 l-90 0 0 35 0
35 73 -1 c39 -1 83 -4 97 -8z m-365 -213 c-4 -57 -9 -105 -11 -107 -2 -2 -27
10 -56 26 -42 24 -58 42 -85 91 l-33 62 32 1 c18 0 56 7 83 14 82 21 77 27 70
-87z m363 77 c7 -6 -31 -71 -65 -113 -28 -35 -90 -81 -94 -70 -1 2 -4 47 -8
101 l-6 98 85 -7 c47 -4 86 -8 88 -9z m-232 -103 c0 -101 -4 -112 -43 -112
-22 0 -23 3 -23 105 l0 105 33 0 32 0 1 -98z"/>
<path d="M1724 2748 c3 -18 8 -120 12 -225 7 -179 8 -193 27 -199 10 -3 23 -2
27 3 5 4 10 108 12 231 l3 222 -44 0 -43 0 6 -32z"/>
<path d="M1850 2527 c0 -257 2 -267 47 -267 l23 0 0 255 0 255 -35 0 -35 0 0
-243z"/>
<path d="M1977 2763 c-9 -8 -9 -450 -1 -481 5 -18 13 -22 33 -20 l26 3 1 253
2 252 -27 0 c-15 0 -31 -3 -34 -7z"/>
<path d="M2087 2723 c-3 -27 -3 -141 0 -255 l6 -208 29 0 28 0 0 233 c0 127
-3 242 -6 255 -4 14 -14 22 -29 22 -19 0 -23 -7 -28 -47z"/>
<path d="M8364 2763 c-17 -3 -23 -14 -28 -50 -8 -60 -8 -269 0 -366 7 -76 7
-77 35 -77 16 0 29 3 29 8 1 4 3 106 6 227 2 121 7 230 9 243 6 23 -1 25 -51
15z"/>
<path d="M8460 2764 c0 -18 24 -84 30 -84 4 0 10 12 13 28 3 15 9 35 12 45 6
14 2 17 -24 17 -17 0 -31 -3 -31 -6z"/>
<path d="M8237 2753 c-21 -3 -27 -9 -23 -20 3 -8 6 -118 6 -244 l0 -229 35 0
36 0 -3 247 c-2 154 -7 247 -13 248 -5 1 -23 0 -38 -2z"/>
<path d="M8098 2505 l3 -245 33 0 34 0 1 245 2 245 -38 0 -38 0 3 -245z"/>
<path d="M5945 2595 c-75 -40 -114 -109 -94 -163 13 -35 74 -98 110 -112 40
-17 100 13 147 74 27 35 28 68 3 122 -33 73 -109 109 -166 79z"/>
<path d="M3291 2589 c-40 -16 -121 -90 -121 -110 0 -29 24 -70 62 -106 40 -39
75 -53 114 -46 110 20 128 204 25 258 -34 17 -46 18 -80 4z"/>
<path d="M3670 2552 c-56 -54 -62 -79 -33 -139 19 -42 86 -93 120 -93 57 0
133 78 133 137 0 72 -66 143 -133 143 -31 0 -46 -8 -87 -48z"/>
<path d="M4144 2581 c-34 -20 -67 -63 -78 -98 -10 -31 15 -83 58 -121 45 -39
77 -48 116 -32 36 15 87 71 96 105 14 54 -26 128 -82 151 -45 19 -73 18 -110
-5z"/>
<path d="M4588 2575 c-38 -26 -78 -81 -78 -109 0 -48 65 -129 116 -146 43 -15
92 7 139 63 46 53 47 97 5 154 -49 66 -119 81 -182 38z"/>
<path d="M5027 2575 c-67 -46 -85 -118 -46 -181 45 -74 117 -94 180 -51 74 50
97 122 59 185 -44 71 -126 92 -193 47z"/>
<path d="M5465 2569 c-73 -65 -81 -128 -24 -193 60 -69 112 -76 177 -25 66 51
77 106 37 176 -47 79 -127 97 -190 42z"/>
<path d="M6378 2582 c-39 -26 -68 -67 -75 -105 -10 -65 54 -149 124 -163 52
-10 153 84 153 144 0 34 -24 75 -65 111 -42 36 -94 41 -137 13z"/>
<path d="M6823 2580 c-62 -38 -80 -117 -43 -190 26 -52 55 -70 110 -70 52 0
66 8 109 64 40 50 40 90 1 144 -51 71 -116 90 -177 52z"/>
<path d="M7800 1505 c0 -7 63 -45 75 -45 5 0 -7 11 -27 25 -37 25 -48 30 -48
20z"/>
<path d="M4997 1753 c-4 -3 -7 -23 -7 -44 0 -31 4 -37 26 -42 34 -6 57 18 49
52 -9 36 -48 55 -68 34z"/>
<path d="M2593 1894 c4 -7 0 -14 -8 -18 -30 -11 -18 -75 25 -133 23 -29 42
-53 44 -53 2 0 -9 23 -23 52 -16 34 -26 69 -26 99 0 26 -4 51 -9 56 -5 4 -6 3
-3 -3z"/>
<path d="M2542 1788 c-7 -7 -12 -23 -12 -36 0 -15 -4 -21 -12 -16 -7 4 -8 3
-4 -4 11 -18 14 -15 31 25 17 39 15 49 -3 31z"/>
<path d="M4967 8819 c-24 -14 -47 -62 -47 -99 l0 -30 120 0 c70 0 120 4 120
10 0 5 -9 34 -20 63 l-20 54 -53 7 c-68 8 -79 7 -100 -5z"/>
<path d="M4992 8523 l3 -78 41 -6 42 -5 5 70 c2 39 2 76 0 83 -3 8 -23 13 -49
13 l-45 0 3 -77z"/>
<path d="M1538 1884 c-14 -31 -1 -57 31 -62 28 -4 51 14 51 42 0 50 -62 65
-82 20z"/>
<path d="M8597 1883 c-8 -43 9 -65 46 -61 30 3 32 5 32 43 0 39 -1 40 -36 43
-33 3 -37 0 -42 -25z"/>
<path d="M8617 1733 c-4 -3 -7 -31 -7 -60 l0 -54 32 3 c28 3 33 8 40 38 11 54
1 80 -31 80 -15 0 -31 -3 -34 -7z"/>
<path d="M1534 1717 c-3 -8 -4 -32 -2 -53 3 -36 6 -39 35 -42 30 -3 32 -1 39
34 4 21 2 44 -3 53 -13 21 -61 27 -69 8z"/>
<path d="M1500 1512 c-25 -21 -19 -45 16 -61 46 -21 64 -15 64 22 0 55 -37 74
-80 39z"/>
<path d="M8612 1518 c-7 -7 -12 -27 -12 -45 0 -32 1 -33 40 -33 25 0 42 6 48
16 5 8 27 18 50 21 48 6 55 20 15 28 -16 3 -42 10 -59 15 -41 13 -67 13 -82
-2z"/>
<path d="M9150 1296 c0 -36 4 -46 20 -51 29 -9 40 2 40 39 0 36 -15 56 -42 56
-15 0 -18 -8 -18 -44z"/>
<path d="M9292 1308 c-17 -17 -15 -54 4 -72 23 -24 53 -20 66 9 21 46 -36 97
-70 63z"/>
<path d="M760 1295 c-30 -36 23 -95 72 -79 28 9 43 46 29 73 -14 25 -81 30
-101 6z"/>
<path d="M9463 1298 c-43 -21 -19 -88 31 -88 45 0 63 52 28 83 -21 19 -28 20
-59 5z"/>
<path d="M536 1287 c-12 -9 -17 -23 -14 -42 2 -24 8 -31 30 -33 38 -5 68 14
68 43 0 39 -49 58 -84 32z"/>
<path d="M9678 1289 c-25 -14 -22 -55 4 -73 28 -20 43 -20 62 0 44 44 -12 105
-66 73z"/>
<path d="M2634 1182 c-17 -11 -24 -54 -12 -69 8 -10 56 -13 199 -13 l189 0 10
26 c7 17 7 32 0 45 -10 18 -23 19 -193 19 -100 0 -187 -4 -193 -8z"/>
<path d="M3260 1165 c-12 -32 -4 -54 24 -60 16 -5 622 0 634 4 1 1 7 12 12 26
21 56 27 55 -331 55 l-329 0 -10 -25z"/>
<path d="M4212 1178 c-16 -16 -15 -55 0 -64 7 -5 315 -9 685 -10 585 -2 675 0
688 13 20 19 19 59 -1 67 -9 3 -318 6 -688 6 -509 0 -675 -3 -684 -12z"/>
<path d="M5748 1179 c-11 -6 -18 -22 -18 -39 0 -37 16 -42 135 -38 l90 3 0 40
0 40 -95 2 c-52 2 -103 -2 -112 -8z"/>
<path d="M6136 1174 c-31 -31 -16 -70 30 -80 38 -7 64 15 64 56 0 41 -62 57
-94 24z"/>
<path d="M6830 1181 c-32 -5 -35 -9 -35 -41 l0 -35 404 -3 c290 -1 408 1 417
9 17 14 18 51 2 67 -9 9 -106 12 -382 11 -204 -1 -387 -4 -406 -8z"/>
<path d="M2170 1149 l0 -29 84 0 c69 0 85 3 90 17 11 27 -8 35 -93 38 l-81 2
0 -28z"/>
<path d="M6437 1153 c-9 -50 -3 -53 104 -53 99 0 100 0 110 27 18 48 9 53
-105 53 l-104 0 -5 -27z"/>
<path d="M2995 1001 c-84 -6 -90 -7 -93 -29 -7 -47 9 -52 167 -52 155 0 171 4
171 47 0 43 -29 47 -245 34z"/>
<path d="M6085 1000 c-168 -5 -170 -5 -173 -28 -7 -49 7 -52 204 -52 195 0
214 5 214 51 0 19 -38 41 -63 37 -7 -1 -88 -5 -182 -8z"/>
<path d="M3674 986 c-3 -8 -4 -25 -2 -38 3 -23 5 -23 118 -23 l115 0 0 35 0
35 -113 3 c-91 2 -113 0 -118 -12z"/>
<path d="M4121 986 c-7 -8 -11 -23 -9 -33 3 -15 19 -19 108 -26 58 -4 175 -6
260 -5 l155 3 0 35 0 35 -251 3 c-211 2 -253 0 -263 -12z"/>
<path d="M4765 980 c-3 -11 -3 -29 0 -40 6 -20 13 -20 178 -18 l172 3 3 38 3
37 -175 0 c-166 0 -175 -1 -181 -20z"/>
<path d="M5244 986 c-3 -8 -4 -25 -2 -38 3 -22 7 -23 100 -26 89 -2 98 -1 108
18 6 11 8 30 5 40 -6 18 -16 20 -106 20 -77 0 -101 -3 -105 -14z"/>
<path d="M5537 994 c-13 -14 -7 -62 9 -68 9 -3 57 -6 109 -6 100 0 119 9 113
52 -3 22 -7 23 -114 26 -60 1 -113 -1 -117 -4z"/>
<path d="M6507 993 c-19 -3 -31 -13 -38 -30 -5 -14 -8 -27 -6 -29 2 -2 31 -7
65 -10 43 -5 66 -3 77 6 23 19 18 49 -11 60 -26 10 -36 10 -87 3z"/>
</g>
</svg>
