<svg id="svg" version="1.1" xmlns="http://www.w3.org/2000/svg" xmlns:xlink="http://www.w3.org/1999/xlink" width="400" height="350" viewBox="0, 0, 400,350"><g id="svgg"><path id="path0" d="M226.679 56.625 C 223.125 58.792,223.480 64.696,227.262 66.318 L 228.711 66.939 230.219 74.583 C 231.762 82.400,233.620 91.085,236.108 102.111 C 236.879 105.528,237.464 108.363,237.407 108.412 C 237.351 108.461,234.053 109.279,230.078 110.231 L 222.852 111.961 222.731 113.598 L 222.611 115.234 165.505 115.241 C 117.021 115.247,107.993 115.334,105.714 115.817 C 99.081 117.222,92.306 122.088,89.748 127.283 L 88.477 129.867 88.477 167.863 C 88.477 197.177,88.369 205.859,88.007 205.859 C 87.749 205.859,86.555 205.603,85.352 205.290 C 81.356 204.249,80.924 204.847,81.645 210.421 C 82.389 216.165,82.139 215.676,85.600 218.155 L 88.768 220.422 88.528 222.418 C 88.396 223.516,88.287 225.332,88.285 226.453 L 88.281 228.492 86.975 228.443 C 85.236 228.377,84.871 228.659,84.324 230.485 C 83.752 232.396,83.652 232.395,81.100 230.469 C 78.547 228.541,75.781 228.828,75.781 231.020 C 75.781 231.188,75.060 233.593,74.177 236.366 L 72.574 241.406 46.834 241.406 L 21.094 241.406 21.094 242.773 L 21.094 244.141 47.459 244.141 L 73.824 244.141 76.982 250.449 L 80.141 256.757 75.204 256.544 C 71.447 256.382,70.103 256.181,69.576 255.704 C 68.649 254.865,69.298 254.794,55.631 257.232 C 39.298 260.144,40.330 259.416,42.969 266.165 C 43.828 268.363,44.531 270.398,44.531 270.689 C 44.531 271.121,45.707 271.170,51.039 270.960 C 54.618 270.819,60.814 270.702,64.808 270.701 L 72.070 270.699 74.673 268.621 L 77.276 266.543 76.253 265.205 C 75.691 264.469,74.564 263.095,73.748 262.152 C 71.694 259.775,71.706 259.766,76.893 259.766 L 81.521 259.766 83.924 264.810 C 86.108 269.394,86.415 270.367,87.292 275.455 C 87.823 278.535,88.396 281.828,88.566 282.773 C 88.997 285.167,89.994 285.748,95.299 286.698 C 103.016 288.080,104.259 287.786,104.284 284.570 C 104.319 279.989,101.085 267.280,98.639 262.388 C 97.669 260.446,96.875 258.707,96.875 258.522 C 96.875 258.337,102.720 258.234,109.863 258.292 C 120.628 258.380,122.832 258.490,122.738 258.935 C 122.655 259.324,122.816 259.379,123.324 259.134 C 123.709 258.949,126.566 258.742,129.673 258.675 C 138.889 258.474,138.817 256.983,129.167 248.242 C 121.616 241.402,121.287 241.071,121.680 240.707 C 122.440 240.004,152.118 226.591,153.516 226.319 C 154.374 226.151,154.715 226.475,156.327 228.982 C 157.336 230.552,159.929 234.560,162.090 237.890 C 166.497 244.680,166.516 245.130,162.261 242.023 C 158.071 238.963,158.333 238.818,151.743 247.852 C 149.350 251.132,141.329 261.215,139.774 262.895 C 137.826 265.002,137.828 264.993,138.633 266.840 C 139.044 267.783,139.938 271.012,140.619 274.015 C 141.300 277.017,141.982 279.698,142.135 279.970 C 142.415 280.471,146.139 278.813,159.889 272.069 L 165.285 269.422 168.803 262.395 C 170.738 258.530,172.462 255.522,172.634 255.711 C 172.806 255.900,175.362 259.746,178.312 264.258 C 181.263 268.770,183.740 272.529,183.818 272.611 C 183.896 272.694,184.496 272.539,185.151 272.268 L 186.343 271.774 185.296 269.969 C 184.719 268.976,182.632 265.615,180.657 262.500 C 178.683 259.385,175.171 253.681,172.855 249.826 C 161.126 230.305,155.784 222.827,153.801 223.157 C 152.292 223.408,128.937 233.786,120.617 237.904 L 118.773 238.816 116.808 237.896 C 114.456 236.794,114.416 236.629,116.309 235.824 C 120.977 233.840,129.288 230.082,135.938 226.950 C 140.127 224.976,145.766 222.324,148.468 221.055 L 153.381 218.749 155.646 219.204 C 158.333 219.744,156.934 217.902,168.508 236.133 C 173.281 243.652,177.905 250.859,178.781 252.148 C 179.658 253.437,182.000 257.041,183.984 260.156 C 185.969 263.271,189.172 268.083,191.102 270.848 C 198.101 280.877,198.044 280.986,181.348 289.487 C 176.138 292.140,171.875 294.428,171.875 294.573 C 171.875 294.717,172.198 295.234,172.593 295.722 L 173.310 296.608 184.104 291.110 L 194.898 285.613 197.405 286.042 C 203.593 287.102,208.134 283.927,208.825 278.056 L 209.070 275.977 232.172 275.977 L 255.273 275.977 255.469 281.641 C 255.731 289.244,257.626 292.188,263.017 293.368 C 267.007 294.241,289.734 293.719,291.602 292.712 C 296.247 290.205,296.484 289.352,296.484 275.158 L 296.484 263.168 297.929 260.197 L 299.374 257.227 299.537 250.684 L 299.700 244.141 339.523 244.141 L 379.346 244.141 379.224 242.871 L 379.102 241.602 361.719 241.709 C 352.158 241.768,334.272 241.703,321.973 241.564 L 299.609 241.313 299.609 213.014 L 299.609 184.716 298.340 184.839 L 297.070 184.961 296.875 220.703 L 296.680 256.445 295.627 258.440 C 294.090 261.355,292.716 262.816,291.088 263.268 C 289.485 263.713,202.532 263.848,194.107 263.418 L 189.190 263.167 188.149 261.523 C 187.577 260.619,187.109 259.766,187.109 259.627 C 187.109 259.488,202.859 259.375,222.109 259.375 C 261.290 259.375,258.528 259.578,261.153 256.511 L 262.514 254.921 262.409 193.183 L 262.305 131.445 261.386 129.968 C 259.326 126.654,267.198 126.952,181.949 126.959 C 140.422 126.962,106.240 127.096,105.988 127.256 C 105.736 127.416,105.410 128.029,105.262 128.617 L 104.993 129.688 116.657 129.746 C 123.072 129.779,157.324 129.757,192.773 129.699 C 257.061 129.593,257.229 129.595,258.203 130.386 C 259.603 131.524,259.666 135.039,259.443 199.590 L 259.253 254.454 258.355 255.352 L 257.457 256.250 221.925 256.250 C 202.382 256.250,186.146 256.345,185.845 256.460 C 185.140 256.731,173.383 239.140,163.784 223.454 C 157.846 213.750,156.964 213.708,139.063 222.289 C 131.865 225.739,122.812 229.976,118.945 231.706 C 115.078 233.436,111.233 235.385,110.401 236.038 L 108.888 237.224 105.714 235.927 C 103.968 235.214,101.240 234.039,99.653 233.316 L 96.767 232.002 97.017 229.607 C 97.326 226.651,97.317 226.659,98.900 227.841 C 100.595 229.106,104.497 230.414,108.181 230.950 L 111.133 231.380 114.453 229.327 C 121.342 225.067,121.218 225.363,117.589 221.805 C 114.282 218.564,111.974 215.561,110.360 212.401 L 109.148 210.029 104.476 208.935 C 101.907 208.334,99.411 207.745,98.929 207.625 L 98.054 207.409 97.953 186.419 L 97.852 165.430 96.582 165.307 L 95.313 165.185 95.313 186.108 C 95.313 209.549,95.599 207.486,92.459 206.614 L 90.973 206.202 91.092 168.238 L 91.211 130.273 92.057 128.693 C 95.077 123.052,92.968 123.280,138.853 123.643 C 158.841 123.801,182.016 123.799,190.353 123.638 L 205.511 123.345 205.392 122.122 L 205.273 120.898 153.320 120.818 C 124.746 120.774,101.367 120.626,101.367 120.490 C 101.367 120.353,102.422 119.774,103.711 119.203 L 106.055 118.164 164.453 118.164 L 222.852 118.164 222.852 119.336 L 222.852 120.508 216.113 120.615 L 209.375 120.722 209.375 122.071 L 209.375 123.420 250.354 123.526 L 291.334 123.633 292.794 124.814 C 293.597 125.464,294.799 126.958,295.467 128.135 L 296.680 130.273 296.789 154.785 L 296.898 179.297 298.262 179.297 L 299.626 179.297 299.520 154.590 L 299.414 129.883 298.173 127.262 C 294.435 119.373,287.787 116.014,275.195 115.653 L 267.383 115.430 267.265 113.382 C 267.113 110.741,267.419 110.870,257.610 109.330 C 253.102 108.622,249.290 107.862,249.139 107.641 C 248.988 107.420,248.398 105.918,247.828 104.303 C 247.258 102.689,245.159 96.885,243.165 91.406 C 233.266 64.215,233.832 65.970,234.528 64.657 C 237.403 59.229,231.805 53.500,226.679 56.625 M231.554 59.202 C 232.653 59.972,232.763 62.465,231.738 63.381 C 229.883 65.040,226.953 63.793,226.953 61.343 C 226.953 59.076,229.609 57.840,231.554 59.202 M238.289 86.328 C 246.976 110.273,246.452 107.954,243.311 108.572 C 240.444 109.136,240.470 109.159,239.703 105.469 C 239.368 103.857,238.138 98.232,236.971 92.969 C 232.445 72.571,231.950 70.033,232.781 71.484 C 232.966 71.807,235.445 78.486,238.289 86.328 M251.758 111.308 C 257.927 112.050,256.700 112.300,245.898 112.500 C 235.536 112.692,231.951 112.462,236.542 111.901 C 237.821 111.745,240.273 111.391,241.992 111.115 C 245.240 110.593,245.932 110.607,251.758 111.308 M264.063 117.796 L 264.063 120.703 244.483 120.703 C 228.583 120.703,224.983 120.609,225.321 120.201 C 225.550 119.925,225.791 118.687,225.857 117.449 L 225.977 115.198 242.578 115.182 C 251.709 115.172,260.146 115.041,261.328 114.889 C 264.143 114.527,264.063 114.441,264.063 117.796 M283.962 119.195 C 285.346 119.737,286.557 120.413,286.652 120.699 C 286.770 121.053,286.612 121.136,286.154 120.961 C 285.785 120.819,281.366 120.703,276.335 120.703 L 267.188 120.703 267.188 119.299 L 267.188 117.894 274.316 118.053 C 280.796 118.196,281.675 118.301,283.962 119.195 M98.616 128.173 C 97.962 128.351,96.995 129.072,96.467 129.775 L 95.508 131.055 95.395 144.070 L 95.282 157.086 96.372 156.961 L 97.461 156.836 97.656 144.336 L 97.852 131.836 99.123 130.005 C 100.511 128.007,100.421 127.681,98.616 128.173 M278.275 130.251 C 277.876 131.291,278.317 132.193,279.671 133.105 C 281.335 134.227,282.189 134.104,282.349 132.719 C 282.581 130.711,278.944 128.507,278.275 130.251 M159.333 145.742 C 146.197 157.577,145.733 158.004,135.200 167.969 C 131.680 171.299,128.473 174.252,128.075 174.532 C 126.912 175.347,126.473 176.447,126.953 177.344 C 127.766 178.862,127.126 179.369,142.973 164.648 C 152.133 156.139,157.775 150.997,166.905 142.834 C 174.513 136.032,174.203 136.426,172.907 135.208 L 171.985 134.343 159.333 145.742 M277.617 136.085 C 268.238 138.701,267.770 151.209,276.894 155.386 C 282.933 158.151,290.234 152.625,290.234 145.291 C 290.234 139.095,283.760 134.371,277.617 136.085 M240.139 143.452 C 236.432 146.941,228.125 154.790,221.680 160.894 C 215.234 166.999,209.620 172.312,209.204 172.702 C 208.369 173.484,209.282 175.173,210.402 174.917 C 210.985 174.783,220.658 165.848,231.250 155.659 C 235.439 151.629,241.196 146.220,244.043 143.637 C 249.241 138.922,249.614 138.442,248.750 137.578 C 247.747 136.576,246.656 137.320,240.139 143.452 M282.240 138.716 C 287.274 139.984,289.054 146.532,285.472 150.611 C 282.516 153.979,278.200 154.028,275.150 150.730 C 270.067 145.234,274.991 136.891,282.240 138.716 M179.492 143.636 C 178.633 144.421,172.138 150.437,165.059 157.004 C 157.980 163.572,149.542 171.388,146.309 174.374 C 136.748 183.202,136.328 183.624,136.328 184.393 C 136.328 184.797,136.675 185.314,137.098 185.541 C 138.005 186.026,138.914 185.262,152.941 172.227 C 161.438 164.331,173.437 153.234,180.222 146.997 L 183.276 144.189 182.556 143.200 C 181.613 141.906,181.345 141.944,179.492 143.636 M250.380 146.755 C 246.104 149.683,216.016 177.464,216.016 178.484 C 216.016 179.327,216.769 180.078,217.615 180.078 C 217.979 180.078,221.152 177.298,224.666 173.900 C 233.525 165.334,238.178 161.033,245.996 154.186 C 252.515 148.477,253.266 147.563,252.266 146.563 C 251.658 145.955,251.530 145.968,250.380 146.755 M277.496 159.933 C 277.062 161.064,277.567 162.281,278.759 162.975 C 280.303 163.874,281.250 163.539,281.250 162.094 C 281.250 160.305,278.058 158.467,277.496 159.933 M276.808 166.589 C 270.088 168.984,267.936 178.066,272.909 183.040 C 278.171 188.302,287.253 186.056,289.308 178.985 C 291.589 171.142,284.303 163.917,276.808 166.589 M282.633 169.484 C 287.296 171.602,288.430 177.286,284.913 180.903 C 280.456 185.485,273.055 182.652,273.062 176.367 C 273.068 170.814,277.904 167.336,282.633 169.484 M165.464 177.176 C 154.106 180.857,154.020 181.117,161.161 190.049 C 166.251 196.416,165.749 196.167,170.536 194.707 C 175.131 193.305,175.156 193.261,175.735 185.479 C 175.996 181.972,176.303 178.619,176.417 178.028 C 176.638 176.885,174.839 174.585,173.761 174.632 C 173.475 174.644,169.742 175.789,165.464 177.176 M172.961 183.496 C 172.529 191.581,172.718 191.091,169.699 191.956 C 166.711 192.811,167.386 193.244,163.115 187.730 C 158.887 182.271,158.854 182.359,166.016 180.036 C 174.018 177.439,173.303 177.083,172.961 183.496 M230.971 193.840 C 230.157 194.534,226.504 197.922,222.852 201.370 C 219.199 204.818,212.555 211.038,208.086 215.193 C 199.926 222.779,199.425 223.431,200.977 224.436 C 201.842 224.997,204.974 222.241,225.098 203.207 C 234.457 194.354,234.989 193.716,233.619 192.982 C 232.591 192.432,232.638 192.417,230.971 193.840 M270.052 193.165 C 265.967 194.883,266.629 205.279,270.875 206.076 C 274.252 206.710,275.781 204.613,275.781 199.349 C 275.781 193.938,273.660 191.648,270.052 193.165 M280.768 193.720 L 279.492 194.861 279.520 199.245 L 279.547 203.629 280.795 204.744 C 284.586 208.131,287.891 205.586,287.891 199.279 C 287.891 192.913,284.568 190.319,280.768 193.720 M272.266 199.609 C 272.266 202.821,272.161 203.516,271.680 203.516 C 271.067 203.516,270.767 196.551,271.354 195.964 C 272.070 195.248,272.266 196.031,272.266 199.609 M283.757 195.940 C 284.809 196.344,284.655 203.125,283.594 203.125 C 283.164 203.125,282.806 203.081,282.798 203.027 C 282.551 201.359,282.385 196.754,282.555 196.310 C 282.816 195.629,282.888 195.607,283.757 195.940 M242.383 202.040 C 235.590 208.166,201.925 239.178,198.336 242.615 C 195.996 244.856,196.541 247.170,199.025 245.542 C 200.106 244.835,213.759 232.391,222.253 224.371 C 223.871 222.844,230.153 217.084,236.212 211.571 C 248.640 200.264,247.964 200.988,247.048 199.975 C 246.036 198.857,245.791 198.966,242.383 202.040 M95.898 209.780 C 106.232 211.734,107.797 212.458,107.807 215.291 L 107.813 217.104 103.418 215.583 C 98.812 213.989,91.899 210.714,90.234 209.337 L 89.258 208.529 90.625 208.785 C 91.377 208.926,93.750 209.374,95.898 209.780 M88.653 211.689 C 93.257 214.454,96.190 215.758,102.862 218.006 C 105.618 218.935,108.013 219.966,108.184 220.297 C 108.693 221.281,109.099 228.125,108.649 228.125 C 106.395 228.125,102.365 226.763,100.609 225.408 C 99.522 224.570,95.653 221.797,92.012 219.246 C 85.004 214.336,85.169 214.524,84.636 210.840 C 84.371 209.009,84.094 208.950,88.653 211.689 M266.276 215.104 C 266.133 215.247,266.016 215.838,266.016 216.417 L 266.016 217.468 278.339 217.661 C 293.288 217.894,294.246 217.739,291.964 215.458 C 291.324 214.818,266.898 214.482,266.276 215.104 M233.527 220.382 C 221.775 231.036,203.515 248.069,203.522 248.371 C 203.566 250.331,205.430 250.507,207.124 248.712 C 208.932 246.793,230.733 226.714,238.574 219.744 C 240.417 218.106,240.569 217.611,239.520 216.662 C 238.524 215.761,238.843 215.563,233.527 220.382 M115.757 225.093 C 115.328 225.810,112.007 227.785,111.734 227.484 C 111.566 227.300,111.320 225.391,111.189 223.242 L 110.950 219.336 113.439 222.070 C 114.809 223.574,115.852 224.934,115.757 225.093 M266.276 220.182 C 266.133 220.326,266.016 220.941,266.016 221.549 L 266.016 222.656 279.057 222.656 L 292.099 222.656 292.271 221.482 C 292.366 220.836,292.357 220.221,292.250 220.115 C 291.955 219.819,266.573 219.885,266.276 220.182 M93.243 223.514 C 94.433 224.667,95.341 230.859,94.320 230.859 C 94.204 230.859,93.413 230.504,92.563 230.070 L 91.016 229.281 91.016 225.773 C 91.016 221.799,91.240 221.572,93.243 223.514 M266.016 226.367 L 266.016 227.734 279.102 227.734 L 292.188 227.734 292.188 226.367 L 292.188 225.000 279.102 225.000 L 266.016 225.000 266.016 226.367 M266.016 231.403 L 266.016 232.729 272.754 232.993 C 276.460 233.138,282.305 233.201,285.742 233.132 L 291.992 233.008 292.113 231.543 L 292.235 230.078 279.125 230.078 L 266.016 230.078 266.016 231.403 M94.962 234.341 C 98.485 236.041,102.400 237.845,103.661 238.349 L 105.955 239.266 106.073 241.929 C 106.217 245.195,107.235 245.511,95.996 238.799 C 87.704 233.848,87.109 233.417,87.109 232.371 C 87.109 230.708,87.786 230.877,94.962 234.341 M81.173 236.352 C 82.127 238.165,85.500 244.307,88.668 250.000 C 91.837 255.693,95.056 261.494,95.823 262.891 C 99.090 268.840,102.425 285.036,100.293 284.601 C 99.810 284.503,97.701 284.132,95.606 283.777 C 91.053 283.005,91.596 283.768,90.426 276.486 C 89.189 268.793,89.632 269.944,81.927 254.401 L 75.298 241.028 76.550 237.799 C 77.238 236.023,77.965 234.161,78.164 233.661 C 78.721 232.264,79.291 232.773,81.173 236.352 M88.759 237.636 C 100.170 244.684,104.742 247.295,107.243 248.191 C 108.397 248.605,117.524 255.043,117.561 255.469 C 117.570 255.576,112.532 255.664,106.364 255.664 L 95.151 255.664 92.947 251.758 C 89.140 245.011,83.984 235.580,83.984 235.364 C 83.984 234.836,85.035 235.335,88.759 237.636 M266.406 241.443 C 266.406 242.750,266.522 243.008,267.024 242.815 C 267.364 242.685,273.264 242.578,280.135 242.578 L 292.628 242.578 292.505 241.309 L 292.383 240.039 279.395 239.936 L 266.406 239.833 266.406 241.443 M117.444 241.504 C 119.490 243.016,123.670 247.040,122.886 246.743 C 122.057 246.429,116.210 242.888,115.137 242.049 C 113.272 240.593,115.499 240.067,117.444 241.504 M116.131 245.659 C 118.324 247.138,121.567 249.008,123.340 249.815 C 127.227 251.583,127.345 251.953,124.023 251.953 C 122.256 251.953,121.483 252.101,121.478 252.441 C 121.457 254.194,120.759 254.020,116.931 251.307 C 114.816 249.808,112.163 247.992,111.035 247.272 C 109.907 246.552,108.984 245.830,108.984 245.669 C 108.984 245.508,108.880 245.105,108.753 244.774 C 108.531 244.194,110.340 243.082,111.639 243.001 C 111.918 242.983,113.939 244.179,116.131 245.659 M158.106 246.191 C 154.803 251.561,144.111 264.163,143.433 263.485 C 143.317 263.369,143.663 262.792,144.204 262.203 C 144.745 261.614,145.604 260.518,146.115 259.766 C 147.267 258.068,157.031 245.758,157.965 244.824 C 159.287 243.503,159.355 244.161,158.106 246.191 M266.191 245.029 C 266.083 245.309,266.061 245.971,266.142 246.500 L 266.289 247.461 279.457 247.564 L 292.626 247.667 292.504 246.197 L 292.383 244.727 279.384 244.624 C 268.993 244.541,266.347 244.623,266.191 245.029 M162.891 246.406 L 163.759 247.109 161.107 248.941 C 157.878 251.170,157.725 251.085,159.556 248.070 C 161.098 245.531,161.539 245.311,162.891 246.406 M168.218 249.804 C 167.792 250.916,160.914 259.763,160.048 260.314 C 159.571 260.618,156.279 262.386,152.734 264.244 C 145.674 267.944,145.310 268.205,144.700 270.009 C 144.157 271.612,143.565 271.771,142.753 270.532 C 141.901 269.231,142.172 268.810,147.253 263.549 C 149.366 261.361,151.996 258.483,153.098 257.155 C 156.086 253.554,169.232 247.163,168.218 249.804 M266.222 250.790 C 266.304 251.440,266.470 252.131,266.590 252.325 C 266.829 252.711,289.231 252.855,291.309 252.484 C 292.446 252.280,292.578 252.120,292.578 250.933 L 292.578 249.609 279.325 249.609 L 266.073 249.609 266.222 250.790 M275.774 254.224 C 273.189 256.317,274.991 261.328,278.328 261.328 C 282.217 261.328,284.422 257.042,281.854 254.474 C 280.624 253.245,277.160 253.102,275.774 254.224 M169.531 254.333 C 169.531 254.978,164.696 264.453,164.367 264.453 C 163.558 264.453,162.784 262.452,163.253 261.576 C 165.063 258.195,169.531 253.039,169.531 254.333 M132.211 254.823 C 133.281 255.606,132.642 255.706,128.125 255.468 C 125.869 255.350,124.287 255.136,124.609 254.993 C 126.419 254.191,131.200 254.084,132.211 254.823 M280.000 255.938 C 280.685 256.623,280.572 257.128,279.827 256.711 C 279.475 256.514,278.859 256.438,278.460 256.542 C 277.751 256.727,277.476 256.248,277.995 255.729 C 278.409 255.315,279.489 255.427,280.000 255.938 M280.410 257.643 C 280.886 258.052,279.793 258.594,278.493 258.594 C 277.038 258.594,276.482 258.023,277.218 257.287 C 277.453 257.052,280.061 257.343,280.410 257.643 M64.260 258.987 C 64.393 259.203,64.228 259.486,63.892 259.615 C 63.556 259.744,63.281 260.091,63.281 260.386 C 63.281 260.681,62.886 261.008,62.402 261.112 C 61.072 261.398,48.828 261.558,48.828 261.289 C 48.828 261.087,61.495 258.780,63.356 258.642 C 63.719 258.616,64.126 258.771,64.260 258.987 M68.281 259.063 C 68.956 259.738,68.871 259.976,67.773 260.476 C 66.885 260.881,66.797 260.839,66.797 260.018 C 66.797 258.615,67.428 258.209,68.281 259.063 M339.544 261.475 C 338.472 262.048,326.607 277.238,326.309 278.418 C 325.839 280.278,326.463 281.086,330.169 283.421 C 333.535 285.541,340.007 289.703,344.828 292.847 C 350.914 296.817,354.685 298.030,355.227 296.191 C 355.404 295.590,357.245 282.787,357.554 280.001 C 357.653 279.108,356.665 277.891,351.054 271.994 C 347.414 268.169,343.737 264.216,342.883 263.211 C 341.063 261.069,340.678 260.868,339.544 261.475 M72.939 266.016 C 72.733 267.276,71.298 266.844,69.822 265.077 C 68.105 263.024,68.093 262.971,69.238 262.517 C 70.226 262.125,73.127 264.868,72.939 266.016 M161.284 265.448 C 161.797 266.632,162.148 267.669,162.065 267.752 C 160.954 268.856,144.922 276.160,144.922 275.562 C 144.922 274.848,147.021 271.092,147.868 270.289 C 148.666 269.534,159.366 263.474,160.156 263.330 C 160.264 263.311,160.771 264.264,161.284 265.448 M66.975 265.820 L 68.810 267.969 57.873 267.969 L 46.936 267.969 46.423 266.504 C 46.142 265.698,45.908 264.863,45.905 264.648 C 45.897 264.191,50.899 263.852,59.230 263.747 L 65.139 263.672 66.975 265.820 M114.931 264.280 C 113.463 265.308,113.830 266.016,115.830 266.016 L 117.598 266.016 116.992 264.844 C 116.296 263.498,116.117 263.449,114.931 264.280 M338.895 271.574 C 337.942 278.929,338.311 278.439,333.613 278.587 C 328.844 278.738,328.850 279.069,333.516 273.294 C 335.622 270.687,337.750 267.973,338.246 267.263 C 339.566 265.372,339.637 265.847,338.895 271.574 M206.179 272.978 C 205.947 281.901,204.991 283.421,199.702 283.282 C 197.093 283.213,196.975 283.119,197.844 281.793 C 199.522 279.232,198.735 276.619,194.483 270.630 C 193.006 268.549,191.797 266.747,191.797 266.626 C 191.797 266.505,195.071 266.406,199.073 266.406 L 206.350 266.406 206.179 272.978 M293.750 276.184 C 293.750 291.525,294.357 291.020,275.977 290.996 C 258.469 290.974,258.227 290.805,258.212 278.613 L 258.203 271.875 268.555 271.875 L 278.906 271.875 278.906 270.745 C 278.906 269.143,278.890 269.141,266.570 269.141 L 255.469 269.141 255.469 271.094 L 255.469 273.047 232.283 273.047 L 209.097 273.047 208.870 270.041 C 208.745 268.387,208.730 266.893,208.836 266.720 C 208.943 266.548,228.092 266.406,251.390 266.406 L 293.750 266.406 293.750 276.184 M348.746 273.805 L 354.702 280.032 354.082 284.255 C 353.152 290.579,353.349 290.420,350.170 287.429 C 348.680 286.028,345.924 283.518,344.046 281.852 C 341.352 279.463,340.668 278.646,340.809 277.986 C 340.906 277.525,341.177 275.479,341.410 273.438 C 341.935 268.839,342.174 267.578,342.519 267.578 C 342.668 267.578,345.469 270.380,348.746 273.805 M37.546 272.168 C 36.422 276.021,35.942 277.873,35.940 278.365 C 35.934 279.487,47.370 280.916,48.861 279.978 C 49.380 279.652,50.723 279.089,51.845 278.727 C 54.046 278.017,54.680 276.944,54.685 273.916 C 54.688 272.140,53.757 271.875,47.501 271.875 C 41.784 271.875,41.400 271.762,42.643 270.439 L 43.496 269.531 40.905 269.531 L 38.314 269.531 37.546 272.168 M304.946 272.844 C 303.476 274.314,303.811 277.628,305.521 278.544 C 306.392 279.010,311.956 278.702,312.870 278.138 C 313.828 277.546,312.996 273.067,311.847 272.631 C 310.276 272.034,305.613 272.178,304.946 272.844 M132.437 274.005 C 131.672 274.927,132.112 275.963,133.328 276.102 C 134.590 276.248,135.547 275.601,135.547 274.603 C 135.547 273.422,133.283 272.986,132.437 274.005 M108.623 274.728 C 108.268 275.663,106.679 282.093,105.819 286.077 C 105.372 288.150,105.389 288.401,106.002 288.744 C 106.374 288.952,109.966 291.597,113.984 294.621 C 127.020 304.432,125.430 304.423,132.684 294.727 C 141.207 283.334,141.371 282.260,134.607 282.190 C 130.329 282.146,127.546 281.329,121.094 278.223 C 111.599 273.653,109.279 273.003,108.623 274.728 M45.035 275.098 C 46.162 275.940,46.085 277.554,44.922 277.462 C 40.692 277.131,39.505 276.877,39.670 276.342 C 39.766 276.034,39.926 275.518,40.027 275.195 C 40.258 274.454,44.075 274.380,45.035 275.098 M309.590 275.000 C 310.258 275.000,310.459 275.166,310.298 275.586 C 310.004 276.351,307.031 276.410,307.031 275.651 C 307.031 274.911,307.487 274.551,308.117 274.793 C 308.414 274.907,309.077 275.000,309.590 275.000 M51.052 275.642 C 51.336 276.381,50.148 277.429,49.226 277.254 C 48.900 277.192,48.577 276.660,48.509 276.071 C 48.362 274.797,50.584 274.423,51.052 275.642 M114.367 278.288 C 115.596 278.807,118.470 280.123,120.753 281.213 C 123.037 282.303,125.849 283.438,127.003 283.736 L 129.102 284.277 127.539 284.720 C 123.631 285.829,123.696 285.846,117.578 282.091 C 111.063 278.094,109.486 276.226,114.367 278.288 M187.078 278.238 C 176.106 283.923,165.625 289.579,165.625 289.817 C 165.625 289.980,165.986 290.440,166.428 290.840 C 167.271 291.603,189.026 281.239,189.836 279.688 C 190.823 277.797,189.387 277.042,187.078 278.238 M116.212 284.376 C 123.746 288.909,123.097 288.033,122.964 293.489 L 122.852 298.111 117.764 294.065 C 114.966 291.839,111.845 289.422,110.830 288.693 C 108.794 287.231,108.755 287.078,109.445 283.331 C 109.992 280.366,109.396 280.274,116.212 284.376 M345.549 286.991 C 349.139 290.149,351.876 292.799,351.630 292.881 C 351.155 293.039,346.414 290.558,343.164 288.450 C 342.090 287.753,339.277 286.027,336.914 284.614 C 334.551 283.201,332.354 281.876,332.031 281.670 C 331.634 281.416,332.662 281.289,335.233 281.273 L 339.022 281.250 345.549 286.991 M62.109 287.362 C 58.051 290.924,57.145 291.462,51.367 293.739 C 43.123 296.989,42.420 297.423,38.531 301.665 C 35.273 305.219,35.065 305.545,35.478 306.450 L 35.921 307.422 46.306 307.422 C 52.884 307.422,56.976 307.270,57.467 307.007 C 57.893 306.779,60.112 305.184,62.398 303.463 C 64.685 301.742,67.061 300.072,67.680 299.752 C 69.314 298.907,74.015 287.921,73.124 287.030 C 72.938 286.844,71.306 286.341,69.498 285.913 C 67.690 285.484,65.947 285.057,65.625 284.962 C 65.293 284.865,63.770 285.904,62.109 287.362 M135.156 286.581 C 135.156 286.966,126.547 298.224,126.139 298.372 C 125.942 298.444,125.781 297.548,125.781 296.381 C 125.781 295.213,125.672 292.958,125.539 291.368 L 125.296 288.477 129.347 287.445 C 133.516 286.384,135.156 286.140,135.156 286.581 M313.184 287.776 C 312.671 288.348,312.500 289.218,312.500 291.262 L 312.500 293.987 315.164 294.845 C 320.521 296.570,323.127 295.547,323.236 291.675 L 323.300 289.405 321.660 288.444 C 319.314 287.070,314.181 286.665,313.184 287.776 M63.845 290.686 C 62.001 292.579,60.691 293.467,57.475 295.002 C 55.248 296.065,51.238 298.341,48.563 300.060 C 40.832 305.029,38.218 305.814,41.850 302.078 C 43.739 300.133,46.709 298.507,53.251 295.834 C 59.139 293.428,59.717 293.117,61.523 291.385 C 65.361 287.705,67.323 287.114,63.845 290.686 M223.828 289.638 C 208.674 291.869,210.782 290.988,202.734 298.453 C 195.462 305.198,187.466 312.109,186.934 312.109 C 186.676 312.109,185.160 311.663,183.565 311.117 C 172.338 307.278,164.156 305.391,163.285 306.440 C 161.745 308.297,165.434 310.961,182.715 320.473 C 185.347 321.922,187.500 323.290,187.500 323.514 C 187.500 324.976,192.200 323.544,200.005 319.704 C 208.991 315.285,208.441 315.334,208.265 318.970 C 208.078 322.807,209.172 324.219,212.330 324.219 C 214.846 324.219,215.723 323.280,215.783 320.525 C 215.841 317.901,214.274 316.658,210.443 316.288 C 208.155 316.068,208.533 315.697,214.284 312.513 C 220.196 309.241,221.403 308.007,223.084 303.516 C 224.188 300.565,224.214 300.544,230.840 297.288 C 237.471 294.030,237.444 294.066,236.096 290.109 C 235.327 287.852,235.825 287.871,223.828 289.638 M319.160 290.440 C 319.794 290.768,320.313 291.172,320.313 291.338 C 320.313 292.666,317.046 293.026,315.603 291.858 C 313.577 290.217,316.487 289.057,319.160 290.440 M67.962 293.872 C 66.627 297.442,58.412 303.880,54.586 304.356 C 51.637 304.722,46.875 304.740,46.875 304.384 C 46.875 303.816,56.432 298.121,59.495 296.864 C 62.428 295.659,66.145 293.208,67.775 291.402 C 68.898 290.158,68.975 291.167,67.962 293.872 M152.930 296.323 C 131.336 308.002,108.222 319.244,106.259 319.023 C 103.656 318.731,102.340 317.017,94.996 304.359 C 87.670 291.730,88.443 292.619,85.960 293.971 C 80.662 296.854,80.628 297.543,85.356 306.093 C 89.126 312.910,89.700 313.594,91.044 312.875 C 92.149 312.284,92.122 312.215,88.086 305.303 C 86.045 301.808,84.375 298.838,84.375 298.703 C 84.375 298.352,86.567 297.266,87.275 297.266 C 87.824 297.266,91.456 303.129,97.887 314.396 C 101.048 319.934,102.340 321.211,105.447 321.870 L 107.901 322.391 122.212 315.266 C 139.125 306.847,161.409 295.151,162.771 293.980 C 163.534 293.323,163.677 292.932,163.465 292.084 C 163.114 290.687,164.035 290.317,152.930 296.323 M233.594 291.898 C 233.594 292.512,233.232 292.736,227.786 295.499 L 223.364 297.742 220.833 296.911 C 216.210 295.393,213.979 293.947,215.707 293.586 C 222.041 292.265,233.594 291.175,233.594 291.898 M211.816 296.071 C 213.292 296.811,213.242 296.980,210.254 301.386 L 207.617 305.273 198.470 311.426 C 188.526 318.114,188.699 318.023,188.613 316.602 C 188.581 316.064,188.537 315.482,188.516 315.307 C 188.494 315.132,191.014 312.811,194.116 310.150 C 197.218 307.489,202.125 303.057,205.021 300.301 C 207.918 297.546,210.390 295.346,210.515 295.412 C 210.640 295.478,211.226 295.775,211.816 296.071 M216.732 298.780 C 217.146 299.042,216.999 299.614,216.022 301.549 C 215.345 302.890,214.886 304.233,215.001 304.533 C 215.460 305.731,216.436 304.949,217.852 302.246 C 219.323 299.439,220.108 298.916,221.231 299.994 C 221.544 300.295,218.765 305.926,217.822 306.899 C 216.965 307.784,209.538 311.845,201.087 316.049 C 186.233 323.439,187.960 320.894,204.833 310.528 C 208.659 308.177,211.012 305.695,213.698 301.174 C 215.307 298.465,215.721 298.139,216.732 298.780 M148.828 306.848 C 131.582 315.835,109.396 326.997,106.950 327.917 C 103.074 329.376,99.944 327.860,98.033 323.601 C 96.777 320.803,96.576 320.626,95.002 320.941 L 93.831 321.175 95.030 323.891 C 97.397 329.249,100.485 331.507,105.003 331.180 C 107.243 331.018,123.441 323.494,134.122 317.655 C 137.489 315.813,137.835 315.788,136.992 317.444 C 136.681 318.055,135.592 320.624,134.573 323.154 L 132.719 327.753 133.729 329.209 C 134.285 330.009,135.873 331.787,137.258 333.159 L 139.777 335.653 144.791 336.560 C 152.128 337.886,151.813 337.941,152.329 335.254 C 152.566 334.019,153.649 328.710,154.736 323.458 C 157.185 311.619,157.216 311.691,150.718 314.063 C 146.854 315.473,146.383 315.490,143.737 314.322 L 141.671 313.411 152.476 307.986 L 163.281 302.562 163.281 301.086 C 163.281 299.157,164.589 298.635,148.828 306.848 M227.864 309.662 C 225.256 309.846,225.164 309.994,224.646 314.804 L 224.209 318.866 225.444 321.054 C 230.709 330.385,231.070 330.718,235.423 330.251 C 238.444 329.928,238.142 330.450,239.065 323.949 C 240.231 315.741,240.302 316.150,237.088 312.502 L 234.332 309.375 232.107 309.447 C 230.884 309.487,228.974 309.584,227.864 309.662 M178.666 312.538 C 185.926 314.834,185.432 314.529,186.117 317.128 C 186.857 319.931,186.848 319.929,179.588 315.635 C 169.373 309.594,169.374 309.599,178.666 312.538 M280.273 314.117 C 277.266 314.986,274.639 315.855,274.436 316.049 C 274.116 316.355,272.728 326.063,272.675 328.364 C 272.660 329.041,273.307 329.463,276.270 330.708 L 279.883 332.227 289.058 332.086 L 298.234 331.946 296.383 333.925 C 293.151 337.380,293.831 338.694,299.414 339.787 C 308.610 341.586,311.641 341.943,313.389 341.434 C 321.521 339.066,321.451 339.097,322.255 337.521 C 323.234 335.603,322.937 335.319,318.164 333.608 C 312.160 331.457,312.210 331.523,316.367 331.208 C 322.767 330.722,322.715 330.838,320.505 322.037 C 318.387 313.602,318.925 314.233,313.574 313.919 C 284.171 312.192,286.998 312.175,280.273 314.117 M235.306 314.845 C 236.750 316.443,237.188 317.734,236.151 317.336 C 235.586 317.119,232.813 313.940,232.813 313.508 C 232.813 312.807,234.078 313.485,235.306 314.845 M228.898 316.942 L 228.889 319.336 228.129 317.661 C 227.255 315.735,227.419 313.315,228.370 314.104 C 228.720 314.394,228.903 315.382,228.898 316.942 M70.508 316.283 C 64.638 320.140,63.708 321.301,65.137 322.985 C 65.863 323.841,72.247 325.222,75.000 325.119 C 78.052 325.004,81.797 323.704,80.564 323.186 C 79.367 322.684,80.682 322.397,83.386 322.570 C 85.872 322.730,86.328 322.664,86.328 322.150 C 86.328 321.814,86.579 321.289,86.885 320.983 C 87.507 320.362,89.059 317.904,89.061 317.538 C 89.068 316.420,83.648 314.897,80.984 315.268 C 78.690 315.587,77.917 315.548,76.737 315.056 C 74.522 314.130,73.470 314.337,70.508 316.283 M296.220 315.793 C 300.694 316.091,304.459 316.438,304.586 316.565 C 304.714 316.693,304.598 316.797,304.329 316.797 C 303.739 316.797,286.757 318.281,284.631 318.518 C 282.703 318.733,278.722 317.617,279.883 317.187 C 280.927 316.801,286.761 315.353,287.500 315.297 C 287.822 315.272,291.746 315.496,296.220 315.793 M153.125 316.330 C 153.125 317.245,149.671 333.662,149.429 333.899 C 149.116 334.206,147.710 332.677,145.106 329.201 L 143.425 326.956 144.880 322.771 L 146.334 318.587 149.437 317.341 C 152.910 315.945,153.125 315.886,153.125 316.330 M142.489 316.824 L 143.688 317.242 141.918 322.312 C 140.362 326.766,140.214 327.462,140.700 328.046 C 141.004 328.412,142.203 329.831,143.363 331.200 L 145.473 333.689 143.732 333.405 C 141.512 333.042,140.152 332.197,137.585 329.587 L 135.521 327.488 136.464 325.756 C 136.983 324.803,138.062 322.310,138.861 320.215 C 140.370 316.261,140.507 316.133,142.489 316.824 M75.789 317.778 C 77.587 318.913,77.739 319.579,76.367 320.313 C 75.296 320.886,75.139 321.467,75.859 322.188 C 76.224 322.552,76.140 322.656,75.480 322.656 C 73.755 322.656,68.730 321.350,68.867 320.938 C 68.976 320.611,73.658 316.952,74.129 316.825 C 74.187 316.810,74.934 317.239,75.789 317.778 M232.137 317.871 C 232.840 318.650,232.650 325.187,231.936 324.746 C 231.018 324.178,230.480 321.877,230.723 319.553 C 230.988 317.021,231.172 316.802,232.137 317.871 M160.277 318.151 C 157.944 319.165,158.143 323.105,160.554 323.634 C 163.359 324.250,165.625 323.091,165.625 321.040 C 165.625 318.239,163.150 316.901,160.277 318.151 M317.913 323.222 C 318.574 325.790,319.063 327.942,318.999 328.006 C 318.179 328.826,307.102 329.198,304.962 328.477 C 302.843 327.763,302.525 327.739,302.139 328.267 C 301.780 328.759,281.031 330.000,280.603 329.556 C 280.387 329.332,282.348 321.708,282.642 321.623 C 282.843 321.566,288.721 320.886,295.703 320.113 C 302.686 319.340,310.068 318.483,312.109 318.210 C 316.677 317.598,316.404 317.363,317.913 323.222 M83.984 318.351 C 84.919 318.942,83.739 319.786,81.543 320.097 C 79.171 320.434,79.075 319.771,81.348 318.739 C 83.281 317.862,83.224 317.870,83.984 318.351 M228.906 320.746 C 228.906 321.414,228.568 321.084,227.962 319.824 L 227.352 318.555 228.129 319.477 C 228.557 319.984,228.906 320.555,228.906 320.746 M236.289 321.484 C 235.704 324.883,235.545 325.435,235.209 325.228 C 234.914 325.045,235.345 320.379,235.769 319.173 C 236.250 317.804,236.631 319.497,236.289 321.484 M212.891 319.844 C 212.891 320.560,212.194 321.484,211.654 321.484 C 210.991 321.484,210.446 319.835,210.995 319.488 C 211.904 318.912,212.891 319.097,212.891 319.844 M278.535 320.127 C 279.886 320.826,279.851 320.529,279.073 324.664 C 278.344 328.534,278.149 328.805,276.751 327.889 C 275.718 327.212,275.691 327.107,275.924 324.598 C 276.416 319.304,276.539 319.095,278.535 320.127 M259.570 325.419 C 258.281 326.047,257.106 326.604,256.958 326.659 C 255.697 327.123,256.375 330.132,258.129 331.852 L 259.961 333.649 262.695 333.427 C 267.459 333.042,267.563 332.945,267.573 328.892 L 267.578 326.730 265.032 325.474 C 262.027 323.993,262.492 323.998,259.570 325.419 M178.401 327.687 C 178.142 328.004,176.214 329.380,174.116 330.744 C 170.540 333.070,170.318 333.290,170.553 334.288 C 170.956 335.998,170.915 335.977,179.746 338.963 L 181.562 339.577 185.215 337.456 L 188.867 335.335 188.867 333.586 C 188.867 331.615,189.370 331.993,182.503 328.798 C 179.366 327.339,178.808 327.188,178.401 327.687 M264.453 328.697 C 264.453 330.108,263.204 330.651,261.722 329.885 C 259.672 328.825,260.199 327.734,262.760 327.734 C 264.299 327.734,264.453 327.822,264.453 328.697 M183.394 331.877 C 186.462 333.106,186.454 333.017,183.694 334.978 L 181.470 336.558 178.041 335.173 C 176.155 334.412,174.611 333.684,174.611 333.555 C 174.607 332.960,177.797 331.891,178.102 332.385 C 178.507 333.040,180.179 332.076,179.900 331.348 C 179.615 330.607,180.590 330.755,183.394 331.877 M311.792 333.859 C 315.377 335.333,318.417 336.646,318.548 336.777 C 318.884 337.114,312.916 338.672,311.288 338.672 C 309.761 338.672,298.463 336.875,298.175 336.586 C 298.072 336.483,298.835 335.636,299.872 334.703 C 300.908 333.771,302.196 332.523,302.733 331.931 C 303.947 330.594,303.752 330.553,311.792 333.859 " stroke="none" fill="#ffffff" fill-rule="evenodd"></path></g></svg>